<svg xmlns="http://www.w3.org/2000/svg" width="578" height="521" fill="none" viewBox="0 0 578 521"><g clip-path="url(#clip0_155_213)"><path fill="#CFE3CC" d="M291.185 358.769C387.857 548.996 300.774 571.216 84.4448 353.761C27.5252 296.545 30.9851 202.929 89.4595 147.299C147.934 91.6689 240.494 93.911 296.199 152.307C351.904 210.703 254.635 286.849 291.185 358.769Z"/><path fill="#F1EABA" d="M167.598 164.511H105.23V219.677H167.598V164.511Z"/><path fill="#3F3D56" d="M199.633 218.796H73.2266V227.138H199.633V218.796Z"/><path fill="#3F3D56" d="M503.121 406.204H376.715V414.546H503.121V406.204Z"/><path fill="#3F3D56" d="M503.12 286.085H73.2266V294.427H503.12V286.085Z"/><path fill="#F1EABA" d="M319.915 366.164C341.136 366.164 358.338 348.984 358.338 327.792C358.338 306.6 341.136 289.421 319.915 289.421C298.695 289.421 281.492 306.6 281.492 327.792C281.492 348.984 298.695 366.164 319.915 366.164Z"/><path fill="#2F2E41" d="M314.903 168.47C314.903 188.9 306.095 189.535 291.746 189.535C277.397 189.535 262.941 188.9 262.941 168.47C262.941 148.039 274.573 131.478 288.922 131.478C303.271 131.478 314.903 148.039 314.903 168.47Z"/><path fill="#FFB9B9" d="M279.262 169.302C279.262 169.302 285.387 194.883 283.16 197.664C280.932 200.444 302.093 206.561 302.093 206.561L311.003 182.093L305.991 181.536C305.991 181.536 298.752 179.868 300.979 165.965C303.207 152.063 279.262 169.302 279.262 169.302Z"/><path fill="#000" d="M279.262 169.302C279.262 169.302 285.387 194.883 283.16 197.664C280.932 200.444 302.093 206.561 302.093 206.561L311.003 182.093L305.991 181.536C305.991 181.536 298.752 179.868 300.979 165.965C303.207 152.063 279.262 169.302 279.262 169.302Z" opacity=".1"/><path fill="#FFB9B9" d="M289.008 176.531C299.003 176.531 307.106 168.439 307.106 158.457C307.106 148.476 299.003 140.384 289.008 140.384C279.013 140.384 270.91 148.476 270.91 158.457C270.91 168.439 279.013 176.531 289.008 176.531Z"/><path fill="#2F2E41" d="M271.19 260.226L258.382 271.348C258.382 271.348 219.402 285.807 228.312 308.051C237.222 330.295 253.928 363.106 253.928 363.106L258.382 373.672H269.519L276.759 370.335L275.088 365.886C275.088 365.886 271.19 359.769 271.19 356.432C271.19 353.096 264.508 314.724 260.053 311.944C260.053 311.944 282.327 290.256 298.476 289.143C314.625 288.031 319.08 284.138 327.989 289.143C336.899 294.148 371.981 303.602 371.981 303.602C371.981 303.602 390.914 338.081 400.381 344.198C409.847 350.315 417.643 370.891 417.643 370.891L433.235 368.111L425.439 351.984C425.439 351.984 417.643 340.305 417.643 335.3C417.643 330.295 392.028 281.914 373.652 274.128C355.275 266.343 346.368 259.185 346.368 259.185L305.715 261.894L271.19 260.226Z"/><path fill="#2F2E41" d="M258.383 365.886C258.383 365.886 254.485 363.105 251.701 368.666C248.916 374.228 241.12 387.018 241.12 387.018C241.12 387.018 218.289 404.257 235.552 408.706C235.552 408.706 243.905 409.262 258.383 399.252C272.861 389.242 283.441 384.237 283.998 382.569C284.555 380.901 280.657 361.993 276.759 361.993C272.861 361.993 273.975 370.891 269.52 370.891C266.337 370.967 263.167 371.34 260.053 372.003L258.383 365.886Z"/><path fill="#2F2E41" d="M438.321 371.262C437.819 369.841 437.04 368.532 436.029 367.413C435.017 366.294 433.794 365.386 432.429 364.742C431.064 364.099 429.584 363.732 428.076 363.663C426.568 363.594 425.062 363.825 423.643 364.342C422.788 364.662 422.209 364.996 422.098 365.33C421.541 366.998 416.501 367.822 415.958 366.854C415.415 365.886 411.517 363.105 414.302 373.671C417.086 384.237 425.439 407.038 429.894 410.931C434.348 414.823 449.94 414.267 451.054 410.374C452.168 406.482 450.497 399.252 448.27 396.472C446.042 393.691 442.144 384.793 441.588 381.457C441.326 379.887 439.83 375.484 438.321 371.262Z"/><path fill="#FFB9B9" d="M338.434 292.761C338.434 292.761 342.815 311.62 351.416 307.189C360.018 302.758 341.986 285.107 341.986 285.107L338.434 292.761Z"/><path fill="#FFB9B9" d="M290.543 282.196C290.543 282.196 294.924 301.055 303.526 296.623C312.127 292.192 294.095 274.542 294.095 274.542L290.543 282.196Z"/><path fill="#575A89" d="M277.871 253.552C277.871 253.552 274.53 266.899 278.984 270.235C283.439 273.572 290.678 273.016 302.929 277.465C315.18 281.914 334.67 277.465 335.227 271.348C335.784 265.23 332.443 240.762 332.443 240.762L277.871 253.552Z"/><path fill="#D0CDE1" d="M333 251.328C326.558 253.308 322.32 253.525 320.287 255.515C320.034 255.757 319.815 256.032 319.636 256.333C317.965 259.113 310.726 260.226 301.26 258.001C298.088 257.17 294.79 256.929 291.531 257.289C288.296 257.617 285.038 258.301 278.985 258.001C268.422 257.473 263.371 222.933 260.977 213.679C260.849 213.173 260.726 212.745 260.609 212.4C258.382 205.727 270.076 199.054 271.746 197.385C273.417 195.717 278.429 189.044 283.039 188.349C287.645 187.653 294.577 197.385 294.577 197.385C294.577 197.385 305.436 184.317 304.322 180.98C303.209 177.644 314.903 179.868 317.13 179.312C318.389 178.995 323.645 180.368 327.983 181.625C329.794 182.148 331.402 183.209 332.593 184.667C333.784 186.126 334.501 187.913 334.649 189.789C334.721 190.695 334.799 191.68 334.877 192.736C336.258 210.899 338.53 249.632 333 251.328Z"/><path fill="#000" d="M291.531 257.289C288.296 257.617 285.038 258.301 278.985 258.001C268.422 257.473 263.371 222.933 260.977 213.679C261.377 210.799 261.723 209.063 261.723 209.063L264.785 213.234C264.785 213.234 279.542 237.425 283.44 244.098C285.033 246.823 288.301 251.967 291.531 257.289Z" opacity=".1"/><path fill="#D0CDE1" d="M265.065 206.839L260.053 209.063C260.053 209.063 253.371 242.43 265.065 259.113C276.759 275.796 281.214 278.577 283.441 281.357C284.107 282.166 284.966 282.794 285.94 283.182C286.913 283.571 287.969 283.709 289.01 283.582C289.01 283.582 286.782 289.143 290.68 289.143C294.578 289.143 309.056 283.582 305.158 281.913C301.26 280.245 297.362 277.465 298.476 274.684C299.59 271.904 285.668 250.771 281.77 244.098C277.872 237.425 265.065 206.839 265.065 206.839Z"/><path fill="#000" d="M333 251.328C326.557 253.308 322.319 253.524 320.286 255.515C319.774 250.021 319.796 244.844 320.749 240.762C324.171 226.113 326.754 194.393 326.596 186.541C326.577 185.609 326.776 187.097 327.709 187.097V187.653C331.83 187.653 332.988 186.191 334.147 190.139C334.381 190.929 334.626 191.796 334.876 192.736C336.257 210.899 338.529 249.632 333 251.328Z" opacity=".1"/><path fill="#D0CDE1" d="M325.759 183.482H327.466C329.472 183.482 331.423 184.13 333.029 185.33C334.635 186.53 335.808 188.217 336.373 190.139C338.5 197.635 340.163 205.256 341.351 212.956C344.693 233.532 348.591 284.694 348.034 285.806C347.477 286.919 354.716 292.48 351.375 293.592C348.034 294.704 341.908 296.929 339.124 297.485C336.34 298.041 330.771 292.48 330.771 292.48C330.771 292.48 319.077 257.445 322.975 240.762C326.873 224.078 325.759 183.482 325.759 183.482Z"/><path fill="#2F2E41" d="M304.613 145.607C304.613 151.14 297.012 155.625 287.635 155.625C278.259 155.625 269.629 158.59 269.629 153.056C269.629 147.523 278.259 135.588 287.635 135.588C297.012 135.588 304.613 140.073 304.613 145.607Z"/><path fill="#2F2E41" d="M263.093 171.937C263.093 171.937 262.4 190.562 280.933 189.534C299.466 188.507 278.429 173.614 278.429 173.614L263.093 171.937Z"/><path fill="#F1EABA" d="M456.464 369.079C452.097 385.061 461.515 401.549 477.501 405.906C493.487 410.262 509.986 400.837 514.353 384.854C518.72 368.871 509.301 352.383 493.316 348.027C477.33 343.671 460.831 353.096 456.464 369.079Z"/><path fill="#3F3D56" d="M578 492.366C578 497.989 561.64 503.238 533.374 507.659C482.154 515.679 391.849 521 288.997 521C129.391 521 0 508.182 0 492.366C0 490.181 2.48358 488.04 7.18902 485.993C12.4959 483.674 20.6371 481.467 31.2285 479.404C53.0628 475.149 85.3215 471.512 124.669 468.81C170.342 465.679 225.577 463.816 285.16 463.744C286.436 463.738 287.715 463.736 288.997 463.738C296.175 463.738 303.29 463.764 310.342 463.816C313.655 463.838 316.953 463.868 320.237 463.905C355.33 464.277 388.541 465.273 418.722 466.774C420.07 466.841 421.412 466.913 422.749 466.98C423.205 467.002 423.662 467.03 424.118 467.052C424.241 467.058 424.363 467.064 424.486 467.075C430.416 467.386 436.217 467.718 441.888 468.07C443.748 468.181 445.591 468.298 447.417 468.42C465.164 469.572 481.547 470.912 496.281 472.419C498.798 472.675 501.267 472.936 503.688 473.203C522.331 475.244 538.029 477.563 550.124 480.082C567.999 483.802 578 487.968 578 492.366Z"/><path fill="#000" d="M395.647 482.946C395.647 490.143 374.186 496.232 344.55 498.312C337.489 498.807 329.954 499.074 322.142 499.074C305.648 499.074 290.429 497.884 278.161 495.87H278.156C260.236 492.929 248.637 488.235 248.637 482.946C248.637 474.038 281.547 466.819 322.142 466.819C362.737 466.819 395.647 474.038 395.647 482.946Z" opacity=".4"/><path fill="#F1EABA" d="M344.549 498.312C337.488 498.807 329.953 499.074 322.141 499.074C305.647 499.074 290.428 497.884 278.16 495.871L331.763 470.918L344.549 498.312Z"/><path fill="#1F4D36" d="M33.6885 482.967C33.6885 492.653 27.9235 496.034 20.811 496.034C20.6463 496.034 20.4815 496.032 20.318 496.028C19.9885 496.021 19.6614 496.006 19.339 495.983C12.9198 495.53 7.93359 491.974 7.93359 482.967C7.93359 473.647 19.8593 461.885 20.7577 461.013L20.7589 461.012C20.7932 460.977 20.811 460.961 20.811 460.961C20.811 460.961 33.6885 473.283 33.6885 482.967Z"/><path fill="#F1EABA" d="M20.3438 494.552L25.0539 487.981L20.3319 495.274L20.3201 496.028C19.9906 496.021 19.6635 496.006 19.3411 495.983L19.8484 486.294L19.8448 486.218L19.8531 486.205L19.9017 485.289L15.168 477.978L19.916 484.603L19.9278 484.797L20.3106 477.476L16.2583 469.921L20.3604 476.192L20.7598 461.013L20.761 460.961V461.012L20.6946 472.981L24.7291 468.236L20.678 474.012L20.5714 480.567L24.3392 474.276L20.556 481.531L20.4967 485.176L25.9641 476.419L20.4754 486.447L20.3438 494.552Z"/><path fill="#1F4D36" d="M489.755 496.869C489.755 506.555 483.99 509.937 476.877 509.937C476.713 509.937 476.548 509.934 476.384 509.931C476.055 509.924 475.728 509.908 475.405 509.886C468.986 509.432 464 505.877 464 496.869C464 487.549 475.926 475.788 476.824 474.915L476.825 474.914C476.86 474.88 476.877 474.863 476.877 474.863C476.877 474.863 489.755 487.185 489.755 496.869Z"/><path fill="#F1EABA" d="M476.41 508.455L481.12 501.883L476.398 509.177L476.386 509.931C476.057 509.924 475.73 509.908 475.407 509.886L475.915 500.197L475.911 500.121L475.92 500.108L475.968 499.192L471.234 491.88L475.982 498.505L475.994 498.699L476.377 491.378L472.325 483.823L476.427 490.094L476.826 474.915L476.827 474.863V474.914L476.761 486.883L480.796 482.138L476.744 487.914L476.638 494.469L480.406 488.178L476.622 495.434L476.563 499.078L482.031 490.322L476.542 500.349L476.41 508.455Z"/><path fill="#1F4D36" d="M166.168 455.915C166.168 467.236 159.43 471.188 151.117 471.188C150.925 471.188 150.732 471.185 150.541 471.181C150.156 471.173 149.774 471.155 149.397 471.129C141.894 470.599 136.066 466.443 136.066 455.915C136.066 445.023 150.005 431.276 151.055 430.256L151.056 430.255C151.096 430.215 151.117 430.195 151.117 430.195C151.117 430.195 166.168 444.597 166.168 455.915Z"/><path fill="#F1EABA" d="M150.569 469.456L156.074 461.776L150.555 470.3L150.541 471.181C150.156 471.173 149.774 471.155 149.397 471.129L149.99 459.804L149.986 459.716L149.995 459.7L150.052 458.63L144.52 450.084L150.069 457.827L150.083 458.054L150.53 449.498L145.794 440.668L150.588 447.997L151.055 430.256L151.057 430.195V430.255L150.979 444.244L155.694 438.698L150.96 445.449L150.835 453.11L155.239 445.757L150.817 454.237L150.748 458.497L157.138 448.263L150.723 459.983L150.569 469.456Z"/></g><path fill="#000" d="M341.708 104.211C341.972 103.775 342.181 103.695 342.242 103.48C344.725 93.8174 348.792 84.7938 352.571 75.641C356.478 66.1996 360.386 56.7582 365.375 47.7653C368.274 42.8266 371.248 37.9555 375.247 33.8892C376.47 32.7037 377.834 31.512 379.425 30.6644C382.533 28.9016 385.691 29.897 387.318 33.1529C388.012 34.4676 388.43 35.9358 388.639 37.4838C389.026 39.8734 389.13 42.2753 389.375 44.6711C389.498 45.869 389.621 47.0669 389.885 48.2586C390.481 50.5684 391.93 51.3548 394.173 50.8329C396.415 50.3109 398.27 49.0272 399.904 47.5407C402.214 45.3171 403.799 42.7003 405.163 39.8808C408.149 33.6644 410.343 27.1285 411.535 20.3529C412.051 17.5702 412.641 14.855 413.231 12.1399C413.403 11.2123 413.858 10.2725 414.392 9.5415C414.656 9.10538 415.633 8.77987 415.996 8.97648C416.499 9.16695 416.819 10.0024 417.126 10.5553C417.206 10.7642 417.077 11.0529 417.015 11.2679C416.357 15.6846 415.706 20.2426 414.772 24.8129C413.266 32.5222 410.686 39.9243 406.594 46.7549C404.609 49.9552 402.109 52.6825 398.712 54.3163C397.188 55.0902 395.444 55.6613 393.754 55.8762C389.811 56.3305 386.604 54.2048 385.45 50.4329C384.872 48.547 384.713 46.5014 384.486 44.5295C384.099 42.1398 383.853 39.744 383.54 37.422C383.442 36.7893 382.987 36.1012 382.748 35.4746C381.335 35.5359 380.671 36.5556 379.854 37.2988C375.658 41.7276 372.341 46.826 369.68 52.3913C364.163 63.8843 358.861 75.4388 353.485 86.9257C351.414 91.4038 349.27 95.8142 347.003 100.655C347.697 100.341 348.115 100.182 348.6 99.9484C350.327 98.9534 351.979 97.8908 353.779 96.9633C354.541 96.5764 355.376 96.257 356.292 96.1465C357.274 95.9623 358.214 96.4169 358.399 97.3998C358.57 98.1001 358.325 98.9601 357.999 99.6113C357.673 100.262 357.053 100.643 356.433 101.024C351.684 104.132 347.009 107.308 342.186 110.348C339.704 111.871 337.407 111.122 336.437 108.333C335.878 106.871 335.522 105.187 335.595 103.627C335.559 97.8957 335.731 92.0844 335.978 86.3408C336.002 85.2781 336.303 84.0618 336.684 83.0544C337.2 81.8995 338.331 81.8505 338.736 83.0361C339.301 84.6395 339.872 86.3841 340.02 88.1471C340.406 92.1647 340.578 96.1207 340.891 100.071C341.008 101.127 341.05 102.116 341.167 103.173C341.388 103.376 341.542 103.652 341.708 104.211Z"/><defs><clipPath id="clip0_155_213"><rect width="578" height="414" fill="#fff" transform="translate(0 107)"/></clipPath></defs></svg>