<svg xmlns="http://www.w3.org/2000/svg" width="34" height="28" fill="none" viewBox="0 0 34 28"><path fill="#1f4d36" fill-rule="evenodd" d="M29.926 7.00628C29.9383 7.30911 29.9424 7.61182 29.9424 7.91465C29.9424 17.0959 23.1649 27.695 10.7713 27.695C6.96417 27.695 3.4241 26.5387 0.441406 24.5704C0.96865 24.6254 1.50412 24.6668 2.04779 24.6668C5.20441 24.6668 8.11179 23.5516 10.418 21.6796C7.46951 21.6383 4.97983 19.6148 4.12118 16.8619C4.53338 16.9444 4.95789 16.9859 5.39201 16.9859C6.00416 16.9859 6.59851 16.9034 7.1682 16.7382C4.0828 16.105 1.75884 13.297 1.75884 9.92461C1.75884 9.88332 1.75884 9.86947 1.75884 9.84194C2.66816 10.3512 3.70894 10.6677 4.8141 10.709C3.00367 9.45636 1.81359 7.32285 1.81359 4.91398C1.81359 3.64761 2.145 2.45 2.72839 1.41763C6.05071 5.62971 11.0178 8.3965 16.6175 8.68556C16.5025 8.17626 16.4436 7.63956 16.4436 7.10273C16.4436 3.26231 19.4605 0.151367 23.1827 0.151367C25.1205 0.151367 26.8707 0.99115 28.0991 2.34011C29.637 2.03729 31.0777 1.4592 32.3814 0.660831C31.8761 2.28509 30.8093 3.64754 29.4152 4.50097C30.7791 4.33579 32.0802 3.96442 33.2867 3.41382C32.3815 4.80408 31.2421 6.02897 29.926 7.00628Z" clip-rule="evenodd"/></svg>