<svg xmlns="http://www.w3.org/2000/svg" width="181" height="174" fill="none" viewBox="0 0 181 174"><path fill="#1F4D36" d="M110.139 132.029C106.628 134.859 102.252 137.963 97.5066 140.524C92.0875 143.442 86.2489 145.172 80.2484 146.269C70.1361 148.11 60.213 147.208 50.5466 143.791C42.2251 140.874 34.5395 136.824 27.7296 131.2C23.8934 128.038 20.3245 124.614 17.3384 120.627C14.6263 117.018 12.3608 113.119 10.837 108.848C9.83559 106.083 9.32819 103.232 9.62554 100.279C9.74797 98.9653 10.1093 97.6961 10.578 96.4591C11.6154 93.8619 13.5306 92.2738 16.1252 91.4555C17.7394 90.9655 19.4084 90.8339 21.0571 90.9212C24.3784 91.0759 27.6308 91.7321 30.7508 92.8617C33.3971 93.8588 36.0352 94.9436 38.6856 95.897C43.7674 97.7834 48.8532 99.626 53.9869 101.429C56.6613 102.362 59.4237 103.061 62.1745 103.649C68.0901 104.884 74.0283 104.929 79.9768 103.915C84.9612 103.055 89.4741 101.09 93.6504 98.2333C99.8092 94.0153 104.258 88.4679 107.233 81.679C107.709 80.5973 108.102 79.4636 108.451 78.3258C110.538 71.3439 111.426 64.1841 111.223 56.8786C111.058 50.5923 110.104 44.4754 108.752 38.3656C107.695 33.5861 106.73 28.771 105.761 23.9996C105.335 21.9285 105.113 19.8102 104.998 17.7239C104.964 17.1466 105.061 16.5815 105.329 16.0765C105.761 15.2335 106.193 14.3905 106.605 13.5236C107.177 12.3624 108.071 11.5404 109.231 10.9419C112.876 9.05109 116.748 8.5064 120.737 9.56231C125.179 10.7267 129.033 12.9846 132.539 15.8945C138.753 21.0439 142.757 27.6214 144.746 35.4246C146.397 41.8933 146.888 48.475 146.359 55.0941C145.933 60.6187 144.941 66.0465 143.905 71.4703C142.579 78.3464 140.911 85.1023 138.634 91.7574C135.231 101.73 130.085 110.723 123.344 118.818C119.518 123.363 115.43 127.642 110.139 132.029Z"/><mask id="mask0_33_409" style="mask-type:alpha" width="138" height="139" x="9" y="9" maskUnits="userSpaceOnUse"><path fill="#000" d="M110.139 132.029C106.628 134.859 102.252 137.963 97.5066 140.524C92.0875 143.442 86.2489 145.172 80.2484 146.269C70.1361 148.11 60.213 147.208 50.5466 143.791C42.2251 140.874 34.5395 136.824 27.7296 131.2C23.8934 128.038 20.3245 124.614 17.3384 120.627C14.6263 117.018 12.3608 113.119 10.837 108.848C9.83559 106.083 9.32819 103.232 9.62554 100.279C9.74797 98.9653 10.1093 97.6961 10.578 96.4591C11.6154 93.8619 13.5306 92.2738 16.1252 91.4555C17.7394 90.9655 19.4084 90.8339 21.0571 90.9212C24.3784 91.0759 27.6308 91.7321 30.7508 92.8617C33.3971 93.8588 36.0352 94.9436 38.6856 95.897C43.7674 97.7834 48.8532 99.626 53.9869 101.429C56.6613 102.362 59.4237 103.061 62.1745 103.649C68.0901 104.884 74.0283 104.929 79.9768 103.915C84.9612 103.055 89.4741 101.09 93.6504 98.2333C99.8092 94.0153 104.258 88.4679 107.233 81.679C107.709 80.5973 108.102 79.4636 108.451 78.3258C110.538 71.3439 111.426 64.1841 111.223 56.8786C111.058 50.5923 110.104 44.4754 108.752 38.3656C107.695 33.5861 106.73 28.771 105.761 23.9996C105.335 21.9285 105.113 19.8102 104.998 17.7239C104.964 17.1466 105.061 16.5815 105.329 16.0765C105.761 15.2335 106.193 14.3905 106.605 13.5236C107.177 12.3624 108.071 11.5404 109.231 10.9419C112.876 9.05109 116.748 8.5064 120.737 9.56231C125.179 10.7267 129.033 12.9846 132.539 15.8945C138.753 21.0439 142.757 27.6214 144.746 35.4246C146.397 41.8933 146.888 48.475 146.359 55.0941C145.933 60.6187 144.941 66.0465 143.905 71.4703C142.579 78.3464 140.911 85.1023 138.634 91.7574C135.231 101.73 130.085 110.723 123.344 118.818C119.518 123.363 115.43 127.642 110.139 132.029Z"/></mask><g mask="url(#mask0_33_409)"><path fill="#F7D046" d="M64.2513 71.4337C64.0048 71.4798 63.9135 71.5164 63.8258 71.5092C59.1648 71.8342 54.8289 73.3108 50.6123 75.2162C45.4356 77.5284 40.5501 80.3277 35.7617 83.2893C32.1813 85.5114 28.7016 87.852 25.2787 90.3076C22.0894 92.6058 18.9604 94.9751 15.9889 97.5778C13.2107 99.9758 10.8056 102.669 9.06254 105.902C5.5183 112.538 5.59085 119.206 9.15577 125.806C12.2993 131.622 17.1316 135.679 23.1654 138.267C31.3304 141.78 39.614 141.685 47.8783 138.588C50.383 137.646 52.7136 136.403 54.9342 134.886C55.0291 134.805 55.124 134.725 55.29 134.584C55.001 134.34 54.712 134.095 54.4431 133.875C48.9452 129.323 44.4598 123.993 41.2988 117.58C39.1604 113.236 37.8563 108.674 37.7684 103.814C37.692 99.3515 38.6334 95.127 41.044 91.2872C42.9445 88.2881 45.4726 85.98 48.8994 84.8262C53.0089 83.4194 56.9737 84.0522 60.6577 86.2283C61.879 86.9458 62.9947 87.8752 64.2053 88.7241C64.2089 88.6803 64.2433 88.5287 64.2541 88.3972C64.1292 85.6076 65.3499 83.6338 67.8962 82.4522C69.1338 81.8916 70.4376 81.6011 71.7708 81.4894C73.8602 81.3072 75.9611 81.5231 78.0003 81.9544C82.6415 82.9514 86.8531 84.8838 90.8391 87.4154C96.5676 91.038 101.468 95.6076 105.41 101.114C107.273 103.692 108.832 106.489 110.093 109.415C110.207 109.645 110.3 109.851 110.37 110.078C110.478 110.109 110.542 110.136 110.609 110.119C115.887 110.087 121.022 109.36 125.951 107.38C129.01 106.131 131.775 104.437 134.107 102.091C138.461 97.7043 140.237 92.445 139.48 86.317C139.24 84.4003 138.729 82.5497 137.968 80.789C137.915 80.6303 137.818 80.4679 137.721 80.3056C137.586 80.3387 137.454 80.3279 137.339 80.3847C131.24 82.3789 124.91 83.141 118.53 83.171C111.974 83.1867 105.53 82.3734 99.2126 80.5556C95.85 79.5749 92.5802 78.2709 89.6236 76.3749C87.8006 75.1891 86.1709 73.7986 84.8365 72.0351C84.1794 71.1653 83.6645 70.1746 83.3524 69.1344C82.5792 66.4462 83.2989 64.1227 85.2046 62.1387C86.6052 60.6649 88.3372 59.7256 90.2101 58.9522C93.6512 57.6231 97.2434 57.1446 100.904 57.1791C107.122 57.246 113.026 58.7212 118.72 61.1498C123.134 63.0326 127.188 65.5477 130.789 68.7317C133.709 71.3527 136.181 74.3121 138.017 77.7709C138.13 78.0008 138.247 78.1868 138.381 78.4404C138.584 78.3908 138.743 78.3376 138.902 78.2844C141.91 77.1185 144.728 75.5841 147.114 73.3967C152.414 68.4916 154.363 62.4744 152.821 55.4219C152.003 51.6712 150.058 48.4681 147.554 45.6165C145.574 43.3811 143.323 41.4986 140.831 39.8611C140.642 39.7354 140.454 39.6097 140.262 39.5279C139.368 40.2048 138.518 40.8853 137.648 41.5422C134.099 44.186 130.223 46.2515 126.079 47.8099C119.978 50.0907 113.696 51.3421 107.154 51.1825C103.939 51.0962 100.777 50.6393 97.7119 49.5285C95.7855 48.7975 93.9647 47.8546 92.5413 46.3706C91.9705 45.7946 91.4507 45.1344 91.0459 44.4175C89.7581 42.0843 90.145 39.513 91.9975 37.3703C93.3649 35.7614 95.1077 34.6906 96.9914 33.7857C97.4513 33.5586 97.807 33.2568 98.1059 32.8401C100.64 29.3853 103.724 26.483 107.258 24.0145C113.25 19.8277 119.886 17.2155 127.118 16.2183C130.555 15.7492 133.956 15.7183 137.391 16.352C139.848 16.7955 142.213 17.5623 144.278 19.0325C147.281 21.1749 148.545 24.0577 147.937 27.7139C147.541 30.1301 146.417 32.2662 145.018 34.2694C144.046 35.6239 142.971 36.9036 141.774 38.0411C141.581 38.2459 141.411 38.4306 141.17 38.6756C141.419 38.8724 141.628 39.0218 141.856 39.1949C144.553 41.0256 147.05 43.1488 149.14 45.6578C151.834 48.878 153.767 52.4992 154.394 56.6975C155.524 64.4664 152.825 70.7532 146.712 75.6139C144.636 77.253 142.305 78.4964 139.841 79.4861C139.59 79.576 139.337 79.7097 139.039 79.8398C139.149 80.1135 139.239 80.3635 139.329 80.6135C140.859 84.5767 141.453 88.64 140.671 92.8114C139.756 97.7881 137.139 101.721 133.22 104.842C129.369 107.947 124.924 109.679 120.118 110.698C117.379 111.268 114.597 111.548 111.81 111.629C111.543 111.652 111.257 111.65 110.946 111.669C111.053 111.987 111.119 112.257 111.209 112.507C112.255 115.901 112.876 119.371 112.65 122.948C112.044 132.516 107.338 139.323 98.5671 143.216C94.2391 145.135 89.6608 145.797 84.9408 145.764C77.9502 145.7 71.3696 143.861 65.1324 140.793C62.3117 139.393 59.6405 137.785 57.0986 135.945C56.9304 135.843 56.7859 135.721 56.5774 135.571C55.7618 136.1 54.9662 136.653 54.1541 137.138C43.1831 143.918 28.5767 144.688 16.8537 136.649C12.4651 133.643 8.9848 129.785 6.82538 124.888C3.51111 117.382 4.23414 110.161 8.72421 103.293C10.1893 101.03 12.0073 99.0392 14.0504 97.265C16.9234 94.7866 19.9611 92.4539 23.0556 90.2362C27.6061 86.9463 32.3377 83.8698 37.1995 81.0906C42.2237 78.2144 47.3176 75.5646 52.756 73.5605C56.2137 72.2989 59.7505 71.4188 63.4456 71.3017C63.6008 71.2923 63.7999 71.2865 63.9552 71.2772C64.0191 71.3045 64.0393 71.3282 64.2513 71.4337ZM69.7939 97.5632C69.8968 97.9246 69.9227 98.1473 69.9961 98.3297C70.8972 101.072 71.3528 103.867 71.403 106.761C71.4452 112.72 69.9103 118.264 67.0781 123.481C64.8688 127.558 61.9772 131.072 58.4675 134.049C58.2777 134.21 58.0844 134.415 57.8473 134.616C58.0759 134.789 58.2405 134.935 58.385 135.057C59.855 135.972 61.2942 136.994 62.7915 137.844C69.077 141.402 75.8244 143.63 83.0968 144.025C87.6437 144.287 92.1401 143.816 96.4595 142.272C100.187 140.944 103.443 138.916 106.048 135.931C108.898 132.656 110.469 128.836 110.995 124.555C111.526 120.231 110.854 116.029 109.467 111.945C109.43 111.854 109.37 111.783 109.31 111.712C109.246 111.684 109.182 111.657 109.138 111.654C109.006 111.643 108.831 111.628 108.699 111.618C100.094 111.334 91.8635 109.426 83.9235 106.13C79.5898 104.342 75.491 102.11 71.7766 99.2252C71.1785 98.7131 70.5603 98.1773 69.7939 97.5632ZM56.5325 133.693C56.8372 133.475 57.0945 133.297 57.2878 133.093C58.4333 132.039 59.6226 130.989 60.7077 129.865C65.252 125.03 68.2114 119.338 69.4269 112.842C70.7566 105.76 69.9588 99.0546 65.8485 92.9172C63.9993 90.1632 61.6816 88.0105 58.6855 86.5965C53.6056 84.2182 48.2296 85.1906 44.2629 89.1679C42.1947 91.2489 40.8231 93.7177 39.9562 96.4924C38.9348 99.806 38.7465 103.188 39.1957 106.599C39.9515 112.198 42.2116 117.214 45.337 121.903C47.7757 125.543 50.6686 128.758 53.9884 131.61C54.8151 132.295 55.6655 132.96 56.5325 133.693ZM137.103 78.9536C136.993 78.6799 136.96 78.5449 136.883 78.4062C135.546 75.8705 133.813 73.5891 131.818 71.5291C129.193 68.8218 126.201 66.5479 122.91 64.6907C115.928 60.7451 108.496 58.5274 100.446 58.4652C97.4025 58.437 94.391 58.8306 91.4882 59.7846C89.6497 60.4064 87.9486 61.238 86.4747 62.5293C84.1435 64.5888 83.6179 67.237 85.0251 69.9991C85.9412 71.7504 87.3078 73.1195 88.8677 74.2837C91.4463 76.215 94.3417 77.5105 97.37 78.53C102.288 80.1893 107.358 81.0669 112.492 81.4423C119.49 81.9481 126.473 81.5702 133.337 79.9473C134.593 79.697 135.816 79.3117 137.103 78.9536ZM108.764 110.013C108.674 109.763 108.605 109.536 108.531 109.354C107.38 106.701 105.975 104.182 104.293 101.816C100.436 96.3615 95.6118 91.9305 89.9638 88.4027C86.1827 86.0643 82.1631 84.2137 77.8051 83.262C75.6581 82.7998 73.4694 82.5768 71.2852 82.8395C70.1949 82.9489 69.1341 83.2372 68.143 83.7518C66.0933 84.7975 65.1701 86.6412 65.6047 88.8826C65.7666 89.6017 65.9924 90.3481 66.3368 90.9939C67.2292 92.7654 68.4262 94.3191 69.8367 95.6917C71.818 97.6404 74.0234 99.2765 76.4021 100.684C86.2365 106.451 96.8703 109.46 108.211 110.034C108.342 110.044 108.521 110.015 108.764 110.013ZM96.1558 35.6366C94.3764 36.6162 92.7781 37.8091 91.9354 39.7476C91.2601 41.2586 91.4926 42.7334 92.3532 44.0832C92.6279 44.5027 92.9665 44.9495 93.3123 45.3086C94.4302 46.4809 95.7996 47.2766 97.271 47.9042C99.6819 48.9174 102.2 49.432 104.807 49.6671C109.606 50.0814 114.345 49.6084 119.027 48.491C125.442 46.9638 131.385 44.4495 136.735 40.5631C137.51 39.9868 138.265 39.3867 139.021 38.7867C138.94 38.6919 138.924 38.6244 138.903 38.6007C138.631 38.424 138.359 38.2473 138.083 38.1144C128.381 32.8877 118.039 30.8955 107.077 32.1615C104.069 32.5112 101.117 33.2626 98.3039 34.4665C97.8914 34.6534 97.5393 34.9114 97.3079 35.3116C96.7978 36.1523 96.2438 36.9894 95.6898 37.8264C95.5878 37.9946 95.4692 38.0952 95.3672 38.2633C95.2505 37.2611 95.8613 36.539 96.1558 35.6366ZM139.953 37.9143C140.071 37.8137 140.186 37.757 140.281 37.6765C142.433 35.6465 144.337 33.4197 145.655 30.7921C146.367 29.3724 146.82 27.8873 146.905 26.306C147.007 23.9761 146.149 22.0531 144.379 20.4966C143.102 19.3776 141.618 18.6386 140.028 18.1116C137.794 17.3556 135.481 17.0342 133.123 16.9959C127.705 16.8619 122.497 17.9363 117.441 19.8613C110.721 22.4224 104.889 26.2694 100.123 31.6593C99.8545 31.9682 99.5865 32.2772 99.3386 32.6099C106.205 30.4137 113.14 30.0761 120.167 31.0474C127.217 31.9986 133.83 34.2595 139.953 37.9143Z"/></g></svg>