<svg xmlns="http://www.w3.org/2000/svg" width="260" height="272" fill="none" viewBox="0 0 260 272"><path fill="#1F4D36" d="M213.737 178.004C209.082 184.11 204.457 190.36 199.686 196.453C195.327 202.006 190.62 207.332 185.094 211.815C176.032 219.156 165.699 224.054 154.599 227.459C141.944 231.343 129.188 231.371 116.312 228.526C106.941 226.407 97.8211 223.519 88.7713 220.428C80.693 217.659 72.8399 214.352 64.9015 211.177C60.1267 209.251 55.3956 207.354 50.918 204.877C47.5166 203.037 44.1152 201.197 41.0963 198.674C38.062 196.079 35.3576 193.263 33.1817 189.922C32.6667 189.09 32.108 188.229 31.593 187.397C27.9047 181.891 25.3673 175.953 23.6773 169.572C22.8465 166.359 22.1314 163.16 21.9207 159.854C21.8839 159.147 21.7749 158.455 21.8101 157.732C22.076 153.12 22.1824 148.467 22.9112 143.908C23.4648 140.478 24.4246 137.187 26.0219 134.063C28.6505 128.876 31.2945 123.761 34.6938 119.013C38.2788 114.075 42.3309 109.565 46.7912 105.383C52.0095 100.513 57.3456 95.8444 62.6228 91.0751C66.8844 87.1986 71.1743 83.2784 74.9818 78.8581C77.1925 76.3193 79.3006 73.6518 81.2056 70.9142C83.7639 67.1725 86.1039 63.2887 88.5159 59.3897C91.4676 54.6611 94.6376 50.0746 98.5214 46.0145C107.488 36.6239 118.539 31.3851 131.366 29.9113C140.109 28.8882 148.631 30.0201 156.985 32.8442C166.628 36.0728 175.551 40.6964 183.552 46.8328C189.876 51.6302 195.501 57.2156 200.469 63.4296C208.573 73.6101 215.989 84.2751 222.343 95.6167C225.189 100.699 227.517 106.004 229.283 111.502C233.028 123.321 232.815 135.112 229.293 146.927C226.245 157.247 221.6 166.777 215.327 175.559C214.773 176.317 214.277 177.175 213.737 178.004Z"/><mask id="mask0_117_221" style="mask-type:alpha" width="212" height="202" x="21" y="29" maskUnits="userSpaceOnUse"><path fill="#000" d="M213.737 178.004C209.082 184.11 204.457 190.36 199.686 196.453C195.327 202.006 190.62 207.332 185.094 211.815C176.032 219.156 165.699 224.054 154.599 227.459C141.944 231.343 129.188 231.371 116.312 228.526C106.941 226.407 97.8211 223.519 88.7713 220.428C80.693 217.659 72.8399 214.352 64.9015 211.177C60.1267 209.251 55.3956 207.354 50.918 204.877C47.5166 203.037 44.1152 201.197 41.0963 198.674C38.062 196.079 35.3576 193.263 33.1817 189.922C32.6667 189.09 32.108 188.229 31.593 187.397C27.9047 181.891 25.3673 175.953 23.6773 169.572C22.8465 166.359 22.1314 163.16 21.9207 159.854C21.8839 159.147 21.7749 158.455 21.8101 157.732C22.076 153.12 22.1824 148.467 22.9112 143.908C23.4648 140.478 24.4246 137.187 26.0219 134.063C28.6505 128.876 31.2945 123.761 34.6938 119.013C38.2788 114.075 42.3309 109.565 46.7912 105.383C52.0095 100.513 57.3456 95.8444 62.6228 91.0751C66.8844 87.1986 71.1743 83.2784 74.9818 78.8581C77.1925 76.3193 79.3006 73.6518 81.2056 70.9142C83.7639 67.1725 86.1039 63.2887 88.5159 59.3897C91.4676 54.6611 94.6376 50.0746 98.5214 46.0145C107.488 36.6239 118.539 31.3851 131.366 29.9113C140.109 28.8882 148.631 30.0201 156.985 32.8442C166.628 36.0728 175.551 40.6964 183.552 46.8328C189.876 51.6302 195.501 57.2156 200.469 63.4296C208.573 73.6101 215.989 84.2751 222.343 95.6167C225.189 100.699 227.517 106.004 229.283 111.502C233.028 123.321 232.815 135.112 229.293 146.927C226.245 157.247 221.6 166.777 215.327 175.559C214.773 176.317 214.277 177.175 213.737 178.004Z"/></mask><g mask="url(#mask0_117_221)"><path fill="#F2C94C" fill-rule="evenodd" d="M146.351 59.7926C147.515 58.0025 148.858 56.7016 150.612 55.9161C151.403 55.5604 152.368 55.3184 153.263 55.2794C154.534 55.2362 155.687 56.2345 155.673 57.5927C155.662 57.8962 155.854 58.2697 156.031 58.571C156.119 58.7431 156.229 58.9026 156.336 59.0583C156.462 59.2407 156.584 59.418 156.664 59.6041C157.792 62.2641 156.668 66.3797 154.39 68.0668C152.341 69.5924 148.642 69.5474 146.688 67.9658C145.551 67.0396 145.06 65.7882 145.015 64.3296C144.996 62.6395 145.527 61.0588 146.351 59.7926ZM182.775 83.1762C180.045 83.2648 178.141 84.7598 176.677 86.9145C175.91 88.0934 175.462 89.3553 175.232 90.7593C174.983 92.958 175.971 94.7817 177.947 95.7562C179.966 96.7592 182.047 96.808 184.135 96.1777C189.678 94.4393 190.359 88.2339 186.823 84.6908C185.683 83.5768 184.378 83.1003 182.775 83.1762ZM182.233 126.133C183.669 124.022 185.558 122.455 187.945 121.46C188.952 121.059 189.989 120.801 191.103 120.904C191.985 120.981 192.71 121.204 193.225 122.036C193.386 122.266 193.62 122.48 193.838 122.622C196.519 124.614 197.339 128.13 195.783 131.095C194.411 133.682 192.174 135.209 189.348 135.732C187.503 136.086 185.695 135.904 183.968 135.215C182.11 134.442 181.126 132.994 180.93 131.002C180.737 129.198 181.224 127.589 182.233 126.133ZM107.154 186.531C108.105 184.974 109.59 183.455 111.514 182.408C112.024 182.109 112.669 181.943 113.265 181.789L113.266 181.789L113.43 181.746C113.483 181.733 113.535 181.719 113.587 181.705C114.264 181.524 114.956 181.415 115.648 181.306C118.646 180.709 120.875 182.345 121.068 185.392C121.171 186.763 121.172 188.193 119.912 189.175C119.771 189.275 119.702 189.445 119.629 189.622C119.584 189.732 119.538 189.845 119.473 189.946C117.817 192.97 115.222 194.761 111.894 195.579C110.568 195.897 109.267 195.796 107.933 195.364C105.874 194.708 104.888 193.072 105.153 190.945C105.452 189.338 106.117 188.031 107.154 186.531ZM176.787 161.761C176.582 162.037 176.37 162.324 176.145 162.624C176.103 162.705 176.057 162.792 176.008 162.885L176.008 162.885C175.776 163.326 175.48 163.886 175.284 164.425C174.329 166.848 175.092 169.209 177.247 170.673C178.746 171.711 180.397 172.039 182.142 171.745C185.372 171.174 187.794 169.456 189.321 166.535C190.862 163.498 189.915 160.273 186.931 158.269C184.165 156.408 180.761 156.865 178.622 159.389C178.004 160.121 177.437 160.886 176.787 161.761ZM73.0701 136.149C71.7352 138.201 70.0773 139.794 67.8781 140.787C67.461 140.951 67.0439 141.114 66.5831 141.249C62.0321 142.514 59.5353 138.902 59.8881 135.589C60.1378 133.391 61.1429 131.559 62.744 130.053C62.8491 129.958 62.9534 129.865 63.0569 129.772L63.0572 129.772C63.5448 129.335 64.0145 128.914 64.4739 128.444C65.8609 127.172 67.4989 126.373 69.4052 126.308C72.4229 126.159 74.584 128.186 74.6615 131.219C74.7395 133.009 73.9921 134.636 73.0701 136.149ZM55.8786 164.485C53.7273 165.881 51.8553 167.708 50.7171 169.267C49.4805 171.073 48.8752 172.481 48.9074 174.055C48.9591 176.077 50.0744 177.61 51.9323 178.384C53.3842 179.018 54.8712 178.929 56.3256 178.508C60.833 177.215 64.2386 173.03 63.3366 167.348C63.0861 165.631 61.8594 164.461 60.1367 164.148C60.0692 164.14 59.9932 164.137 59.915 164.135C59.7251 164.128 59.5224 164.121 59.3986 164.041C58.0757 163.304 56.9684 163.765 55.8786 164.485ZM137.568 159.837C138.763 158.191 140.611 156.783 142.913 155.919C143.992 155.503 145.073 155.274 146.108 156.071C146.305 156.2 146.609 156.22 146.895 156.24L146.896 156.24L146.896 156.24C146.989 156.246 147.079 156.252 147.164 156.262C149.06 156.5 150.299 157.555 150.696 159.429C151.171 161.851 150.487 163.953 148.919 165.791C147.807 167.119 146.446 168.16 144.865 168.871C142.91 169.774 140.888 169.826 138.943 168.996C137.172 168.279 136.203 166.903 136.023 164.983C135.844 163.252 136.376 161.671 137.568 159.837ZM104.725 114.542C104.54 114.758 104.355 114.973 104.169 115.182C103.05 117.188 102.135 119.265 102.06 121.577C101.985 122.647 102.127 123.671 103.445 124.032C103.522 124.041 103.613 124.113 103.704 124.186C103.749 124.223 103.795 124.259 103.838 124.287C105.181 125.471 106.786 125.583 108.413 125.088C111.378 124.159 113.538 122.271 115.083 119.61C115.664 118.621 116.071 117.518 116.159 116.333C116.424 112.964 114.261 110.749 110.883 110.975C109.18 111.109 107.596 111.633 106.338 112.803C105.761 113.34 105.239 113.946 104.725 114.542ZM107.518 155.885C106.111 157.953 104.147 159.347 101.654 159.838C101.077 159.96 100.485 160.01 99.922 160.016C96.4392 159.925 94.4443 157.261 95.3452 153.87C95.789 152.232 96.6105 150.778 97.825 149.58C98.7162 148.669 99.7192 147.83 100.722 146.991C100.973 146.781 101.224 146.571 101.473 146.361C101.759 146.112 102.104 145.963 102.449 145.815C104.532 144.809 105.866 145.242 107.073 147.208C107.162 147.34 107.246 147.48 107.332 147.623L107.332 147.623C107.46 147.835 107.592 148.055 107.75 148.269C108.76 149.486 109.05 150.855 108.879 152.359C108.735 153.632 108.272 154.822 107.518 155.885ZM85.2872 90.9068C86.0541 89.728 86.9235 88.678 88.0854 87.9425C89.7912 86.7531 91.5534 86.7188 93.3851 87.7239C97.9653 90.3305 97.3387 96.2609 93.8135 98.8144C93.2543 99.1963 92.68 99.5062 92.0903 99.744C90.9394 100.176 89.7449 100.579 88.5787 100.939C85.8577 101.779 84.2685 100.497 83.7607 97.7431C83.2397 95.1051 83.996 92.9873 85.2872 90.9068ZM138.491 101.966C141.901 103.315 145.716 102.13 147.705 99.0739C148.755 97.4584 149.311 95.4584 149.292 93.7683C149.157 90.8227 147.112 88.8087 144.136 88.7989C142.59 88.7874 141.223 89.2652 140.063 90.1884C138.517 91.4194 137.494 92.9912 136.952 94.8754C136.508 96.5129 136.368 98.1615 136.791 99.8037C137.033 100.769 137.504 101.573 138.491 101.966ZM155.635 187.372C152.425 187.148 149.883 188.477 148.019 191.055C146.925 192.642 146.9 194.304 147.498 196.059C147.991 197.499 148.883 198.514 150.248 199.091C154.008 200.667 158.865 198.358 160.034 194.459C161.079 191.038 158.988 187.565 155.635 187.372ZM123.362 73.5453C121.828 75.903 118.672 76.6465 116.013 75.2896C113.616 74.1031 112.514 71.2116 113.555 68.6572C114.497 66.3495 116.152 64.5683 118.452 63.5166C119.142 63.2199 119.978 63.0804 120.758 63.0283C121.697 63.0177 122.396 63.4722 122.753 64.4505C122.947 65.0117 123.171 65.5763 123.394 66.1408L123.394 66.1408C123.617 66.7054 123.84 67.2699 124.034 67.8312C124.693 69.8752 124.382 71.7857 123.362 73.5453ZM148.846 123.49C146.944 123.931 145.555 125.015 144.504 126.631C143.339 128.421 142.974 130.607 143.441 132.277C143.997 134.192 145.555 135.331 147.385 134.906C148.755 134.616 150.078 134.109 151.343 133.503C152.88 132.763 153.833 131.394 154.407 129.842C155.052 128.087 154.917 126.384 153.63 124.924C152.357 123.537 150.676 123.065 148.846 123.49Z" clip-rule="evenodd"/></g></svg>