<svg width="174" height="239" viewBox="0 0 174 239" fill="none" xmlns="http://www.w3.org/2000/svg">
<path d="M13.3983 5.74473C21.2172 7.4119 28.2963 10.8365 34.8215 15.4026C41.9309 20.2991 48.1221 26.156 53.6406 32.7745C60.9093 41.546 67.4619 50.817 73.7101 60.3242C82.3488 73.4387 89.9612 87.0856 97.1514 101.044C104.912 116.087 112.33 131.308 118.957 146.911C125.233 161.579 130.05 176.683 132.967 192.38C134.134 198.801 134.99 205.254 134.77 211.774C134.662 215.944 134.351 220.12 133.151 224.201C132.26 227.34 130.65 230.069 128.37 232.397C125.813 235.069 122.753 236.115 119.144 235.524C117.04 235.213 114.93 234.699 112.99 233.869C106.528 231.085 100.237 227.985 94.446 223.985C87.9102 219.467 81.8013 214.386 76.0286 208.924C63.9414 197.477 52.8584 185.139 42.4267 172.136C27.786 153.914 14.6949 134.617 3.60267 114.042C-5.48929 97.2403 -12.271 79.5823 -16.4591 60.9277C-18.3798 52.4217 -19.4282 43.8546 -19.2728 35.0974C-19.1673 30.0174 -18.5211 25.0058 -16.8626 20.2165C-15.9111 17.4951 -14.6328 14.896 -12.8666 12.6061C-9.78808 8.4825 -5.71527 6.04255 -0.664586 5.13108C2.96824 4.46393 6.58684 4.55152 10.1583 5.0835C11.3363 5.24122 12.3379 5.51178 13.3983 5.74473Z" fill="#1F4D36"/>
<mask id="mask0_117_240" style="mask-type:alpha" maskUnits="userSpaceOnUse" x="-20" y="4" width="155" height="232">
<path d="M13.3983 5.74473C21.2172 7.4119 28.2963 10.8365 34.8215 15.4026C41.9309 20.2991 48.1221 26.156 53.6406 32.7745C60.9093 41.546 67.4619 50.817 73.7101 60.3242C82.3488 73.4387 89.9612 87.0856 97.1514 101.044C104.912 116.087 112.33 131.308 118.957 146.911C125.233 161.579 130.05 176.683 132.967 192.38C134.134 198.801 134.99 205.254 134.77 211.774C134.662 215.944 134.351 220.12 133.151 224.201C132.26 227.34 130.65 230.069 128.37 232.397C125.813 235.069 122.753 236.115 119.144 235.524C117.04 235.213 114.93 234.699 112.99 233.869C106.528 231.085 100.237 227.985 94.446 223.985C87.9102 219.467 81.8013 214.386 76.0286 208.924C63.9414 197.477 52.8584 185.139 42.4267 172.136C27.786 153.914 14.6949 134.617 3.60267 114.042C-5.48929 97.2403 -12.271 79.5823 -16.4591 60.9277C-18.3798 52.4217 -19.4282 43.8546 -19.2728 35.0974C-19.1673 30.0174 -18.5211 25.0058 -16.8626 20.2165C-15.9111 17.4951 -14.6328 14.896 -12.8666 12.6061C-9.78808 8.4825 -5.71527 6.04255 -0.664586 5.13108C2.96824 4.46393 6.58684 4.55152 10.1583 5.0835C11.3363 5.24122 12.3379 5.51178 13.3983 5.74473Z" fill="black"/>
</mask>
<g mask="url(#mask0_117_240)">
<path d="M117.525 208.216C118.929 208.726 120.322 209.285 121.726 209.795C131.117 213.273 139.992 217.951 148.457 223.348C149.165 223.806 149.803 224.351 150.383 224.933C150.592 225.13 150.727 225.665 150.578 225.885C150.466 226.164 149.99 226.261 149.413 226.589C149.843 225.319 149.162 224.968 148.53 224.627C141.063 220.208 133.506 215.97 125.447 212.634C122.297 211.335 119.114 210.182 115.953 208.931C115.252 208.676 114.604 208.635 113.865 208.776C105.236 210.568 96.4761 211.575 87.5742 211.387C82.184 211.315 76.8784 210.857 71.6294 209.451C70.7242 209.201 69.8402 208.856 69.0361 208.376C67.6478 207.566 67.5481 206.179 68.825 205.197C69.6693 204.574 70.7333 204.1 71.7761 203.723C74.4662 202.748 77.2701 202.404 80.1493 202.177C84.9283 201.813 89.6767 202.047 94.4579 202.592C98.4468 203.064 102.334 203.767 106.217 204.721C108.424 205.256 110.647 205.947 112.822 206.627C113.582 206.844 114.327 206.907 115.124 206.728C119.751 205.673 124.325 204.404 128.704 202.638C131.084 201.695 133.399 200.587 135.536 199.137C137.017 198.148 138.422 197.042 139.532 195.669C141.207 193.562 141.823 191.221 141.34 188.589C141.025 186.802 140.368 185.192 139.497 183.637C138.008 180.985 136.135 178.704 134.036 176.526C128.928 171.26 123.025 167.083 116.604 163.652C114.755 162.639 112.863 161.82 111.004 160.855C110.591 160.664 110.195 160.627 109.756 160.783C101.162 163.796 92.1775 164.905 83.1544 165.499C74.3934 166.05 65.6361 165.895 56.9154 165.343C50.5929 164.914 44.2539 164.33 37.915 163.746C33.9049 163.37 29.8996 162.743 26.0273 161.741C24.8811 161.438 23.7666 160.991 22.711 160.507C22.202 160.294 21.7835 159.899 21.4133 159.514C20.6351 158.687 20.4719 157.59 21.128 156.673C21.6455 155.928 22.318 155.166 23.0823 154.677C24.4238 153.86 25.8512 153.113 27.2844 152.569C31.7709 150.775 36.5218 149.848 41.2785 149.125C49.7327 147.9 58.2538 147.751 66.7606 148.357C75.6636 148.999 84.4077 150.364 93.0201 152.559C98.6653 154.002 104.215 155.878 109.622 158.177C110.082 158.379 110.554 158.533 111.11 158.302C114.046 157.128 116.879 155.729 119.299 153.684C120.095 153.051 120.816 152.299 121.488 151.538C123.933 148.69 124.712 145.374 123.852 141.699C123.278 139.249 122.09 137.068 120.619 135.027C118.873 132.622 116.813 130.502 114.565 128.543C109.394 124.022 103.557 120.466 97.4686 117.36C87.2485 112.134 76.4803 108.253 65.3028 105.545C64.7726 105.428 64.1142 105.435 63.5793 105.57C48.5434 109.846 33.1799 111.473 17.6203 111.692C13.9699 111.749 10.2655 111.592 6.63525 111.098C4.67551 110.819 2.74753 110.396 0.973641 109.501C0.475215 109.24 -0.0502299 108.871 -0.468693 108.476C-1.80989 107.222 -1.90484 105.584 -0.612609 104.302C0.0870053 103.647 0.883015 103.013 1.78127 102.604C3.29442 101.926 4.8828 101.366 6.43941 100.95C11.5854 99.6047 16.8512 99.0941 22.1122 98.8352C31.7031 98.4159 41.275 99.0029 50.801 100.489C54.9991 101.159 59.203 102.032 63.3799 102.798C63.8619 102.904 64.4133 102.924 64.9 102.778C69.564 101.327 74.1575 99.5068 78.2351 96.8153C81.1263 94.9242 83.6366 92.6967 85.4441 89.7591C86.7023 87.7114 87.4892 85.5095 87.6706 83.0736C87.851 80.1828 87.0473 77.6315 85.5052 75.2212C84.1513 73.1048 82.4716 71.3211 80.5567 69.6878C76.6412 66.3519 72.2565 63.7718 67.6907 61.5562C59.6523 57.6682 51.2846 54.8194 42.6241 52.6137C41.1405 52.2372 39.6463 51.909 38.1145 51.5219C37.5361 51.3949 37.06 51.4924 36.5791 51.8415C25.367 59.1803 13.0211 62.4806 -0.366986 62.0152C-6.22868 61.7885 -11.9586 60.7319 -17.392 58.3256C-18.8226 57.7082 -20.2003 56.8497 -21.471 55.9643C-22.2163 55.4469 -22.9086 54.6885 -23.3976 53.9242C-24.386 52.4439 -24.2082 50.7146 -22.9266 49.4804C-22.0988 48.7023 -21.137 48.0041 -20.0942 47.6269C-18.2224 46.9265 -16.2649 46.2955 -14.3121 45.9161C-9.22964 44.8601 -4.038 44.6869 1.11129 44.7066C12.6196 44.759 23.9384 46.134 35.2006 48.4566C36.1164 48.6578 36.8065 48.5062 37.5919 47.9209C42.582 44.0656 46.0545 39.0686 48.5348 33.2978C50.4989 28.7272 51.8575 23.9226 53.0716 19.0862C53.9304 15.6371 54.6928 12.1667 55.3588 8.67517C55.7023 6.88121 55.9119 5.00728 56.0627 3.17096C56.1511 2.07881 56.0948 0.954882 55.2626 -0.086869C56.082 0.0931383 56.4417 0.525836 56.5662 1.10898C56.8094 2.07187 57.0526 3.03475 57.0924 4.00348C57.26 6.92026 56.8175 9.85459 56.2892 12.7195C55.1643 18.9902 53.6055 25.1655 51.7682 31.2292C49.6438 38.1392 46.1042 44.132 40.5168 48.8666C40.3298 49.0276 40.1911 49.1992 39.9242 49.4943C40.4438 49.6589 40.8776 49.7542 41.2526 49.8872C48.2579 51.5777 55.1197 53.6914 61.7475 56.4106C67.3573 58.704 72.7859 61.3619 77.7454 64.7755C79.8954 66.2584 81.976 67.827 83.7791 69.7389C84.9651 71.01 86.0924 72.3186 87.0326 73.7883C90.4764 79.0417 90.586 84.5225 87.7036 90.0534C86.2065 92.9581 84.0336 95.2597 81.4798 97.2249C77.8948 99.9742 73.8797 101.922 69.6977 103.479C69.3661 103.608 69.0346 103.737 68.703 103.866C68.6442 103.904 68.6231 104 68.4949 104.124C70.0161 104.559 71.5373 104.994 73.0103 105.419C85.4268 109.157 97.3269 114.096 108.199 121.183C111.652 123.407 114.885 125.936 117.842 128.809C120.009 130.902 121.99 133.156 123.42 135.844C124.216 137.282 124.894 138.796 125.347 140.411C126.767 145.22 125.669 149.526 122.327 153.238C120.192 155.598 117.536 157.339 114.703 158.737C114.136 159.017 113.569 159.297 112.885 159.652C113.383 159.913 113.737 160.142 114.102 160.323C121.218 163.807 127.866 168.046 133.628 173.556C136.128 175.975 138.441 178.554 140.322 181.494C141.477 183.364 142.418 185.289 142.9 187.466C143.787 191.249 142.901 194.591 140.302 197.455C138.828 199.102 137.081 200.386 135.221 201.493C132.313 203.229 129.239 204.574 126.083 205.599C123.628 206.424 121.109 207.083 118.616 207.849C118.237 207.968 117.867 208.038 117.488 208.157C117.509 208.061 117.498 208.109 117.525 208.216ZM107.478 159.424C107.172 159.205 107.038 159.125 106.904 159.045C102.87 157.401 98.7719 156.046 94.5833 154.873C86.7257 152.692 78.7363 151.341 70.6304 150.521C62.0214 149.69 53.4463 149.625 44.9004 150.578C39.4101 151.19 33.9797 152.22 28.7654 154.106C27.4498 154.575 26.1506 155.199 24.889 155.882C24.3223 156.162 23.7615 156.645 23.3076 157.101C22.7256 157.681 22.7479 158.039 23.4661 158.45C24.1361 158.849 24.8756 159.163 25.6362 159.381C30.1304 160.773 34.794 161.393 39.5001 161.82C46.1764 162.479 52.8845 162.992 59.5656 163.399C68.1899 163.93 76.8238 163.957 85.4613 163.278C92.4988 162.752 99.4281 161.799 106.221 159.855C106.494 159.764 106.874 159.645 107.478 159.424ZM33.525 50.5642C33.0054 50.3996 32.7162 50.336 32.3788 50.2619C21.6632 48.211 10.8534 47.0489 -0.0765041 47.1235C-4.8778 47.1297 -9.68385 47.3876 -14.4077 48.4214C-16.002 48.7785 -17.5903 49.339 -19.1305 49.9101C-19.783 50.1205 -20.3921 50.593 -20.8942 51.0384C-21.455 51.5215 -21.5127 52.0141 -21.1366 52.602C-20.9109 52.9547 -20.5889 53.3286 -20.2832 53.5473C-19.3663 54.2035 -18.4013 54.8703 -17.3938 55.3442C-12.9138 57.4905 -8.10447 58.5976 -3.14688 59.0298C9.38639 60.1664 21.1773 57.5525 32.1247 51.4187C32.5738 51.2142 32.9371 50.9403 33.525 50.5642ZM59.3049 104.328C59.3155 104.28 59.2885 104.173 59.2991 104.125C59.1545 104.093 59.0204 104.013 58.8758 103.981C46.9659 101.617 34.9463 100.442 22.7702 100.9C17.6268 101.083 12.5162 101.578 7.54656 102.81C5.94175 103.215 4.40157 103.786 2.8508 104.406C2.1877 104.664 1.56805 105.185 1.00719 105.668C0.563912 106.076 0.575597 106.483 1.04226 106.888C1.55712 107.305 2.14136 107.635 2.79497 107.88C5.35064 108.896 8.08631 109.093 10.822 109.289C16.5555 109.64 22.3467 109.497 28.0945 109.092C38.1933 108.431 48.1676 107.186 58.0481 104.759C58.3902 104.582 58.8287 104.425 59.3049 104.328ZM69.2786 206.812C69.9709 207.571 70.8761 207.82 71.7331 208.059C74.6521 208.801 77.6934 209.217 80.7182 209.477C90.644 210.293 100.475 209.472 110.255 207.73C110.517 207.687 110.801 207.547 111.288 207.401C110.056 207.029 109.161 206.732 108.207 206.472C101.909 204.785 95.4829 203.676 88.9734 203.409C84.3696 203.206 79.7611 203.254 75.1924 204.272C73.764 204.564 72.3896 205.07 71.0258 205.529C70.3357 205.68 69.6996 206.046 69.2786 206.812Z" fill="#F2C94C"/>
</g>
</svg>
