<svg width="153" height="164" viewBox="0 0 153 164" fill="none" xmlns="http://www.w3.org/2000/svg">
<path d="M67.5644 163.018C64.0102 162.82 60.8509 161.636 58.2839 159.069C56.7043 157.489 55.2234 155.712 53.9399 153.737C49.4971 146.925 44.8569 140.31 39.2294 134.387C39.1307 134.288 39.1307 134.288 39.032 134.189C28.6655 121.058 17.9041 108.224 8.32749 94.5006C4.97074 89.6629 2.69999 84.4303 0.725425 78.8028C-0.558041 75.0511 -0.163129 71.3982 2.10762 68.1402C3.48981 66.1656 5.16819 64.2898 7.04403 62.8088C19.9774 52.4424 31.9235 40.9899 44.1658 29.7349C52.5577 22.1328 61.1471 14.827 69.7364 7.52107C71.8097 5.74396 74.0805 4.06558 76.4499 2.68339C82.966 -1.26574 89.482 -0.870829 95.307 3.96685C97.8739 6.04014 100.145 8.50835 102.119 11.174C110.018 21.5405 117.126 32.4006 123.741 43.6556C127.69 50.3691 131.836 57.0826 135.983 63.5987C140.525 70.7071 144.671 78.1117 148.225 85.7138C149.805 89.0705 151.187 92.526 151.878 96.179C152.668 100.424 151.878 104.373 149.213 107.829C147.435 110.001 145.461 112.173 143.289 113.851C138.056 117.998 132.528 121.848 127.097 125.896C120.976 130.339 114.756 134.683 108.734 139.224C99.8485 146.037 90.3706 152.059 80.8927 158.082C78.227 159.76 75.2652 160.846 72.3033 162.031C70.9212 162.623 69.144 162.722 67.5644 163.018Z" fill="#1F4D36"/>
<mask id="mask0_119_299" style="mask-type:alpha" maskUnits="userSpaceOnUse" x="0" y="0" width="153" height="164">
<path d="M67.5644 163.018C64.0102 162.82 60.8509 161.636 58.2839 159.069C56.7043 157.489 55.2234 155.712 53.9399 153.737C49.4971 146.925 44.8569 140.31 39.2294 134.387C39.1307 134.288 39.1307 134.288 39.032 134.189C28.6655 121.058 17.9041 108.224 8.32749 94.5006C4.97074 89.6629 2.69999 84.4303 0.725425 78.8028C-0.558041 75.0511 -0.163129 71.3982 2.10762 68.1402C3.48981 66.1656 5.16819 64.2898 7.04403 62.8088C19.9774 52.4424 31.9235 40.9899 44.1658 29.7349C52.5577 22.1328 61.1471 14.827 69.7364 7.52107C71.8097 5.74396 74.0805 4.06558 76.4499 2.68339C82.966 -1.26574 89.482 -0.870829 95.307 3.96685C97.8739 6.04014 100.145 8.50835 102.119 11.174C110.018 21.5405 117.126 32.4006 123.741 43.6556C127.69 50.3691 131.836 57.0826 135.983 63.5987C140.525 70.7071 144.671 78.1117 148.225 85.7138C149.805 89.0705 151.187 92.526 151.878 96.179C152.668 100.424 151.878 104.373 149.213 107.829C147.435 110.001 145.461 112.173 143.289 113.851C138.056 117.998 132.528 121.848 127.097 125.896C120.976 130.339 114.756 134.683 108.734 139.224C99.8485 146.037 90.3706 152.059 80.8927 158.082C78.227 159.76 75.2652 160.846 72.3033 162.031C70.9212 162.623 69.144 162.722 67.5644 163.018Z" fill="#55BBDA"/>
</mask>
<g mask="url(#mask0_119_299)">
<path d="M161.156 169.534C159.873 169.139 158.885 168.151 157.997 167.065C156.22 164.893 155.134 162.327 154.245 159.76C152.073 153.342 150.889 146.629 150.099 139.915C149.506 134.683 149.111 129.351 148.519 124.119C148.519 123.724 148.42 123.428 148.223 122.539C147.433 123.724 147.038 124.415 146.544 125.106C140.917 133.893 134.796 142.285 127.194 149.591C124.429 152.256 121.369 154.724 118.209 156.896C116.334 158.18 114.063 159.167 111.792 159.76C106.757 161.142 102.512 159.068 100.241 154.428C98.6613 151.269 98.0689 147.813 98.0689 144.358C98.0689 140.31 98.3651 136.361 98.5626 132.313C98.5626 131.82 98.6613 131.326 98.76 130.24C97.9702 131.227 97.4766 131.82 96.9829 132.412C92.9351 137.842 88.591 143.075 83.7534 147.813C80.4953 150.973 77.1386 153.935 73.1894 156.205C70.9187 157.588 68.5492 158.575 65.9823 159.068C61.6383 159.76 57.9853 157.982 56.0107 154.033C54.6285 151.269 54.1349 148.208 53.9375 145.148C53.4438 137.447 54.4311 129.845 55.5171 122.243C55.912 119.775 56.3069 117.306 56.4057 114.641C55.912 115.332 55.4184 116.023 55.0235 116.714C50.482 124.02 45.8417 131.03 40.1155 137.447C37.6473 140.211 34.9817 142.778 32.1185 145.148C30.4402 146.53 28.3669 147.616 26.3923 148.307C22.147 149.788 18.3953 148.406 15.9271 144.654C14.3475 142.285 13.6564 139.619 13.1627 136.953C12.1754 131.03 12.0767 125.106 12.6691 119.281C13.2615 112.568 14.15 105.755 14.8411 99.0418C14.9398 98.2519 15.0386 97.4621 14.7424 96.4748C14.2487 97.0672 13.7551 97.6596 13.2615 98.3507C8.12759 105.36 2.50008 111.975 -4.1147 117.701C-6.58291 119.775 -9.24857 121.651 -11.9142 123.428C-12.7041 123.921 -13.6913 124.612 -14.7773 123.428C-14.4812 123.033 -14.2837 122.638 -13.8888 122.44C-9.44602 119.577 -5.59562 115.826 -1.94268 112.074C4.57338 105.36 10.2996 98.0545 15.4335 90.255C16.1246 89.169 16.6182 87.8855 16.9144 86.602C21.1597 65.2767 26.7872 44.3464 35.3766 24.3045C37.9435 18.3809 40.7079 12.6546 44.3608 7.42203C45.8418 5.25001 47.5201 3.27545 49.2972 1.39961C50.3832 0.0174184 51.8642 -1.06859 53.5425 -0.278767C55.3196 0.609787 55.4184 2.48562 55.1222 4.06527C54.2336 8.60677 53.4438 13.247 52.0616 17.6898C44.8545 41.8782 34.5867 64.6844 21.2584 86.1084C19.8762 88.2804 18.9877 90.5512 18.5928 93.1181C17.0131 102.497 15.5322 111.975 15.1373 121.552C14.9398 126.784 14.8411 132.017 16.0258 137.151C16.4208 138.829 17.0131 140.508 17.8029 141.989C19.6788 145.543 22.7394 146.727 26.2936 144.852C28.3669 143.864 30.4402 142.482 32.1185 140.804C35.574 137.348 38.8321 133.695 41.8926 129.845C48.5074 121.354 53.9375 112.074 58.9726 102.596C59.3675 101.806 59.7624 100.819 59.9599 99.9303C64.2052 81.2707 70.1289 63.006 75.8551 44.7413C80.1004 31.3142 84.4445 17.7885 89.8745 4.75637C90.9605 2.09071 92.244 -0.574951 93.6262 -3.14188C94.0211 -3.93171 94.6135 -4.72153 95.4033 -5.3139C96.588 -6.30118 98.1677 -5.80754 98.4639 -4.22789C98.6613 -3.14188 98.6613 -2.05587 98.6613 -0.969863C98.1677 5.84238 96.4893 12.4572 94.9096 19.072C87.9987 48.3942 76.8424 76.2356 62.9217 102.892C62.0332 104.571 61.3421 106.348 61.0459 108.223C59.565 116.023 58.1828 123.724 56.998 131.523C56.3069 136.361 56.0107 141.297 56.7019 146.135C56.998 148.011 57.3929 149.887 58.084 151.664C59.565 155.416 62.4281 156.798 66.2785 155.81C68.253 155.317 70.2276 154.428 71.906 153.342C74.7691 151.368 77.5335 149.294 80.1004 147.024C87.6038 140.211 93.7249 132.313 99.3524 124.02C99.8461 123.329 100.142 122.44 100.34 121.651C105.079 97.3634 111.99 73.6686 120.085 50.2701C124.429 37.6329 129.07 25.1931 134.5 12.9508C135.586 10.5813 136.77 8.21186 138.054 5.94111C138.745 4.65764 139.633 3.37418 141.411 3.86782C143.188 4.36146 143.286 5.94111 143.188 7.3233C142.892 11.7661 142.694 16.2088 142.003 20.5529C137.56 49.9739 128.477 77.9139 114.655 104.274C111.496 110.396 107.744 116.122 104.388 122.144C103.894 123.131 103.302 124.119 103.104 125.106C102.018 131.523 101.031 137.941 101.524 144.457C101.722 146.826 102.117 149.294 102.907 151.664C104.486 156.205 107.744 157.686 112.286 156.008C114.26 155.317 116.235 154.33 117.913 153.046C121.073 150.578 124.133 148.011 126.996 145.148C135.092 136.855 141.707 127.475 147.532 117.405C148.124 116.319 148.322 115.233 148.322 114.048C148.223 101.609 150.987 89.7613 155.529 78.3089C156.516 75.9394 157.799 73.5699 159.182 71.3979C159.873 70.2132 160.959 69.2259 162.144 68.436C164.118 67.1526 166.29 67.9424 166.784 70.2131C167.179 72.089 167.277 74.1623 167.08 76.0381C166.586 81.3694 165.105 86.602 163.328 91.6372C160.465 100.128 156.615 108.125 152.369 116.023C151.876 116.912 151.382 118.096 151.382 119.084C151.876 132.708 152.764 146.234 156.121 159.463C156.516 161.241 157.108 163.018 157.898 164.597C158.589 166.177 159.873 167.757 161.156 169.534ZM140.028 8.60677C131.933 20.3554 104.98 102.892 105.276 113.95C111.693 105.558 124.528 76.0381 130.748 55.1077C135.289 39.9036 138.646 24.502 140.028 8.60677ZM52.9502 2.38689C52.7527 2.28817 52.4565 2.18944 52.2591 2.09071C51.6667 2.68308 50.8769 3.07799 50.3832 3.76909C48.9023 5.64492 47.3227 7.42203 46.1379 9.49532C43.7685 13.5432 41.4977 17.591 39.6219 21.8363C32.6122 37.1392 27.577 53.3306 23.5292 69.8182C22.6406 73.2737 21.9495 76.6305 21.1597 80.086C21.2584 80.1847 21.4559 80.1847 21.5546 80.2834C22.0483 79.4936 22.5419 78.7038 23.0355 77.9139C32.1185 62.4136 39.6219 46.2222 45.743 29.3397C48.5074 21.7376 51.1731 14.2343 52.5553 6.23729C52.8514 5.05255 52.8514 3.67036 52.9502 2.38689ZM66.081 88.4779C67.4632 85.6147 68.7467 82.7516 70.1289 79.9872C81.0877 56.2925 89.4796 31.7092 94.8109 6.13856C95.3046 3.96654 95.6007 1.79453 95.9957 -0.377494C91.2567 5.25001 68.9441 71.8915 66.081 88.4779ZM163.921 71.2992C158.589 74.1623 151.382 99.2392 151.678 108.421C151.876 108.223 152.073 108.125 152.172 107.927C156.911 98.3507 160.86 88.5766 163.032 78.1114C163.526 75.9394 163.624 73.8661 163.921 71.2992Z" fill="#F2C94C"/>
</g>
</svg>
