<svg xmlns="http://www.w3.org/2000/svg" width="139" height="134" fill="none" viewBox="0 0 139 134"><path fill="#4CA96D" d="M61.766 123.464C59.6598 124.231 57.5535 124.998 55.5199 125.738C54.5757 126.082 53.6051 126.353 52.6542 126.452C50.2638 126.665 48.3748 125.543 47.6277 123.265C46.7485 120.624 46.0145 117.93 45.2805 115.236C44.844 113.585 45.0218 112.04 46.2826 110.758C46.5664 110.408 46.7973 109.913 46.883 109.47C47.1846 103.52 48.1003 97.6759 48.8443 91.8117C49.1472 89.4805 49.4501 87.1493 49.4096 84.7787C49.4002 77.2968 49.3182 69.8415 49.2098 62.3134C49.1817 57.7174 49.8668 53.2729 51.1858 48.7622C51.9245 46.2724 52.2207 43.6969 52.4443 41.1478C52.7535 38.1563 53.2609 35.2572 54.6797 32.602C55.2142 31.5849 55.5241 30.4027 55.9331 29.2668C56.804 27.1401 58.3092 25.8518 60.5741 25.5208C61.9871 25.3354 63.2486 25.8632 64.3715 26.6882C70.6598 31.3084 76.9217 35.8559 83.1638 40.5751C86.6845 43.2417 90.0137 46.0602 93.4618 48.7531C102.082 55.4856 110.867 61.9934 119.936 68.1512C122.875 70.1245 125.749 72.3687 128.404 74.6921C131.284 77.1806 132.771 80.5875 133.994 84.1728C134.338 85.117 134.094 86.0283 133.256 86.6626C132.226 87.4488 131.196 88.235 130.014 88.8298C115.357 96.4689 100.627 104.134 85.9439 111.701C81.5798 113.948 77.143 116.221 72.6534 118.349C69.0089 120.087 65.285 121.607 61.6141 123.273C61.7396 123.392 61.766 123.464 61.766 123.464ZM55.4081 109.163C56.3787 108.892 57.0853 108.8 57.7389 108.562C60.1819 107.59 62.7239 106.665 65.1404 105.62C72.2711 102.613 79.349 99.4605 86.0436 95.7072C89.9917 93.4473 93.8869 91.0421 97.9869 88.9737C102.424 86.7004 107.065 84.7639 111.654 82.6821C112.281 82.3715 112.908 82.0609 113.654 81.6247C113.205 81.2947 113.053 81.1033 112.829 80.9383C103 74.728 93.5943 67.8704 84.2148 61.0854C82.22 59.673 79.9875 58.5116 77.9466 57.1982C75.1856 55.4889 72.3983 53.707 69.6109 51.9251C69.2873 51.7139 68.9107 51.3574 68.6333 51.0472C67.3979 49.6873 66.9153 48.1356 67.6014 46.4053C68.2875 44.6749 69.6343 43.8555 71.4634 43.6832C71.853 43.6236 72.17 43.5904 72.8765 43.4977C69.4285 40.8048 66.1588 38.3759 62.7968 36.1451C61.6879 37.6181 61.365 39.2163 61.2137 40.8342C60.8716 44.4135 60.7013 48.0125 59.4743 51.4204C58.3463 54.8744 57.8061 58.3613 57.8075 61.9801C57.8092 66.5035 57.9561 70.9741 57.9578 75.4975C57.92 80.3643 58.1529 85.2971 57.7717 90.1244C57.3115 95.6386 56.3824 100.994 55.6514 106.443C55.4801 107.328 55.4539 108.16 55.4081 109.163Z"/><path fill="#000" d="M32.4665 126.81C32.1817 124.446 31.7252 122.062 31.6847 119.692C31.522 108.399 32.1188 97.16 32.8872 85.9403C33.9512 70.3357 35.8737 54.8298 37.8952 39.3702C38.4418 35.2229 39.1336 31.0228 40.4925 27.0734C40.9674 25.6666 41.6405 24.3523 42.3136 23.0379C42.9866 21.7236 44.0035 21.3534 45.4102 21.8283C46.1499 22.0526 46.8434 22.3759 47.3916 22.7521C50.3309 24.7255 53.3164 26.5998 56.1369 28.6987C64.2814 35.0284 72.3798 41.4573 80.4055 47.9126C83.3318 50.302 86.3042 52.5923 89.1843 55.0808C93.6167 58.896 98.5244 62.2092 103.359 65.5488C108.716 69.192 113.36 73.5882 117.674 78.4336C118.533 79.437 119.299 80.6386 119.821 81.8469C120.78 83.8012 120.417 85.7427 118.945 87.3479C118.114 88.2265 117.183 89.0589 116.1 89.6999C112.733 91.7482 109.188 93.5325 105.457 94.8083C94.6285 98.5038 84.5996 103.718 74.3462 108.767C64.5285 113.657 54.5853 118.428 44.7412 123.246C41.9418 124.594 39.1491 126.187 36.4026 127.68C36.1847 127.759 35.9933 127.911 35.8018 128.063C33.8013 129.121 33.3324 128.962 32.4665 126.81Z"/><mask id="mask0_107_115" style="mask-type:alpha" width="90" height="108" x="31" y="21" maskUnits="userSpaceOnUse"><path fill="#000" d="M32.4665 126.81C32.1817 124.446 31.7252 122.062 31.6847 119.692C31.522 108.399 32.1188 97.16 32.8872 85.9403C33.9512 70.3357 35.8737 54.8298 37.8952 39.3702C38.4418 35.2229 39.1336 31.0228 40.4925 27.0734C40.9674 25.6666 41.6405 24.3523 42.3136 23.0379C42.9866 21.7236 44.0035 21.3534 45.4102 21.8283C46.1499 22.0526 46.8434 22.3759 47.3916 22.7521C50.3309 24.7255 53.3164 26.5998 56.1369 28.6987C64.2814 35.0284 72.3798 41.4573 80.4055 47.9126C83.3318 50.302 86.3042 52.5923 89.1843 55.0808C93.6167 58.896 98.5244 62.2092 103.359 65.5488C108.716 69.192 113.36 73.5882 117.674 78.4336C118.533 79.437 119.299 80.6386 119.821 81.8469C120.78 83.8012 120.417 85.7427 118.945 87.3479C118.114 88.2265 117.183 89.0589 116.1 89.6999C112.733 91.7482 109.188 93.5325 105.457 94.8083C94.6285 98.5038 84.5996 103.718 74.3462 108.767C64.5285 113.657 54.5853 118.428 44.7412 123.246C41.9418 124.594 39.1491 126.187 36.4026 127.68C36.1847 127.759 35.9933 127.911 35.8018 128.063C33.8013 129.121 33.3324 128.962 32.4665 126.81Z"/></mask><g mask="url(#mask0_107_115)"><path fill="#F7D046" d="M57.9374 153.071C57.1925 152.081 57.0957 150.91 57.2282 149.765C57.4711 147.867 57.6963 145.921 58.1023 144.019C59.6511 137.259 61.8745 130.692 64.2301 124.187C69.1972 110.371 74.8079 96.8139 80.9124 83.4061C87.1889 69.7163 95.092 57.0244 104.207 45.0975C106.289 42.3658 108.304 39.6033 110.337 36.8893C110.778 36.2901 111.171 35.7085 111.391 34.8058C110.43 34.8815 109.72 35.1948 109.046 35.6049C107.022 36.8352 104.932 38.0347 102.978 39.4586C95.3061 44.9385 88.3918 51.2939 81.6979 57.9528C64.7647 74.8094 50.613 93.7239 38.8286 114.463C36.4911 118.604 34.0698 122.666 31.7147 126.758C31.3883 127.371 30.9958 127.952 30.6033 128.534C30.3519 128.899 29.9859 129.252 29.4746 129.054C28.8794 128.777 29.0118 128.236 29.1618 127.743C29.3427 127.183 29.5412 126.672 29.7882 126.144C32.7127 118.938 36.0515 111.965 39.7871 105.177C53.6359 79.8479 70.4954 56.6029 89.9866 35.3058C92.9676 32.0274 95.931 28.7005 98.8767 25.3251C99.8425 24.2059 100.707 22.9591 101.54 21.7784C101.823 21.3466 102.021 20.8357 102.312 20.1266C101.677 20.1933 101.267 20.1232 100.945 20.2952C99.1377 21.063 97.2462 21.7516 95.5574 22.6954C87.9029 27.0174 80.9095 32.2501 74.1364 37.7863C55.3695 53.227 39.1151 71.0428 24.9368 90.7895C22.7185 93.8999 20.5179 97.0588 18.2512 100.187C17.6999 100.936 17.1001 101.703 16.4828 102.421C16.2931 102.654 16.0726 102.954 15.7993 103.108C15.5259 103.263 15.0409 103.439 14.9395 103.312C14.7368 103.056 14.5958 102.669 14.6531 102.374C14.7061 101.916 14.9399 101.502 15.1251 101.106C16.51 98.5727 17.8287 96.0091 19.3459 93.5377C24.7881 84.6477 31.1296 76.4173 37.7048 68.376C48.8001 54.7962 61.0194 42.3424 73.891 30.4735C76.9645 27.6 80.0381 24.7265 83.0939 21.8046C84.1434 20.7645 85.1092 19.6453 86.0749 18.5261C86.4233 18.1251 86.6703 17.5965 87.1246 16.8829C86.0664 16.9939 85.3522 17.1443 84.6423 17.4576C81.4324 18.9003 78.412 20.7127 75.493 22.6527C64.7164 29.8658 54.8523 38.2272 45.5126 47.2749C36.7771 55.7189 28.6102 64.6687 21.078 74.155C19.83 75.7059 18.7804 77.3492 17.6823 79.01C17.4794 79.3581 17.0473 79.6799 17.3558 80.2255C17.391 80.3223 17.1044 80.5912 16.9633 80.8071C16.7473 80.6664 16.4166 80.5126 16.4123 80.3497C16.3859 79.9755 16.4741 79.6144 16.6285 79.284C17.1886 78.2576 17.7488 77.2313 18.4103 76.3325C21.4135 72.0589 24.7694 68.1505 28.2399 64.2551C39.8862 51.1327 52.489 38.9779 66.5199 28.3319C71.1278 24.845 75.8371 21.4856 80.8549 18.6719C82.1733 17.9178 83.5754 17.2428 84.929 16.5855C85.4934 16.3252 86.2077 16.1749 86.8426 16.1082C87.6406 16.037 88.1122 16.5781 87.8563 17.3841C87.6755 17.9434 87.4285 18.472 87.0977 18.9214C86.1496 20.089 85.1706 21.3227 84.0726 22.3804C79.2661 26.9815 74.4419 31.5341 69.6178 36.0867C54.5192 50.137 40.646 65.441 28.3465 82.2008C24.5186 87.3777 20.9068 92.6953 17.7269 98.2942C17.5416 98.6906 17.2903 99.0563 17.2549 99.5627C17.5548 99.1793 17.8061 98.8137 18.106 98.4303C22.2779 92.6896 26.2999 86.8389 30.6217 81.208C44.6806 63.0949 60.6525 46.9172 78.7887 32.9125C83.842 28.9892 89.0804 25.2727 94.6449 22.1503C96.5101 21.0875 98.4633 20.2667 100.447 19.3799C100.866 19.1726 101.387 19.0928 101.894 19.1276C102.775 19.1355 103.313 19.7074 103.123 20.5441C102.991 21.0858 102.762 21.6628 102.431 22.1122C101.536 23.425 100.592 24.7556 99.5644 26.0069C95.4941 30.6689 91.4062 35.2825 87.2698 39.9137C67.9549 61.6949 51.4833 85.4019 38.0224 111.193C36.8889 113.36 35.8392 115.607 34.7233 117.822C34.4763 118.351 34.1632 118.849 33.8985 119.329C33.9823 119.408 34.0484 119.439 34.1807 119.5C34.3835 119.152 34.5864 118.804 34.8069 118.505C38.5115 112.386 42.0178 106.174 45.8723 100.165C58.6398 80.1646 73.9463 62.3101 91.977 46.8085C96.4131 43.0003 100.933 39.2712 105.959 36.1802C107.309 35.36 108.729 34.7334 110.113 34.0101C110.338 33.8734 110.598 33.8335 110.81 33.8113C112.044 33.5812 112.683 34.2806 112.291 35.4653C112.017 36.2229 111.581 36.985 111.157 37.6326C110.011 39.3111 108.846 40.9413 107.616 42.5406C103.44 48.1185 99.3295 53.7271 95.5192 59.5556C90.3152 67.5912 85.6093 75.9389 81.5823 84.6426C73.8547 101.438 66.8369 118.523 60.974 136.065C59.7653 139.685 58.8872 143.459 57.9738 147.136C57.4884 149.122 57.2632 151.068 57.9374 153.071Z"/></g></svg>