<svg width="271" height="305" viewBox="0 0 271 305" fill="none" xmlns="http://www.w3.org/2000/svg">
<path d="M66.0118 83.3784C73.0418 71.4612 79.4606 63.1466 87.373 56.128C99.2951 45.5107 113.267 39.1929 128.917 36.7105C147.344 33.7802 165.401 35.4058 182.945 41.826C191.168 44.8706 198.773 49.0851 205.833 54.3503C215.497 61.4932 224.507 69.4604 232.435 78.563C235.962 82.692 239.418 86.9405 242.648 91.2968C246.967 96.9502 250.213 103.179 252.841 109.766C255.096 115.484 257.197 121.191 258.654 127.161C260.521 134.752 261.29 142.417 260.653 150.134C259.774 161.106 258.035 171.889 254.817 182.438C253.457 186.889 251.607 191.21 249.459 195.353C247.014 200.128 244.474 204.928 241.671 209.489C235.246 219.986 226.239 227.89 215.641 234.116C203.02 241.563 189.221 245.15 174.675 245.781C171.015 245.945 167.403 246.3 163.743 246.869C152.79 248.672 141.798 249.724 130.686 249.894C113.993 250.054 97.8289 247.291 82.1822 241.355C74.484 238.381 67.1537 234.655 60.6784 229.495C50.117 221.007 44.3194 210.099 43.9046 196.411C43.7715 190.664 44.4732 185.011 45.5206 179.32C46.0857 176.338 46.6749 173.451 47.2997 170.504C49.0558 161.998 50.287 153.422 50.8384 144.764C51.2059 138.992 51.7285 133.231 52.1558 127.495C53.5696 110.607 58.79 94.9383 66.0118 83.3784Z" fill="#1F4D36"/>
<mask id="mask0_119_294" style="mask-type:alpha" maskUnits="userSpaceOnUse" x="43" y="35" width="218" height="215">
<path d="M66.0118 83.3784C73.0418 71.4612 79.4606 63.1466 87.373 56.128C99.2951 45.5107 113.267 39.1929 128.917 36.7105C147.344 33.7802 165.401 35.4058 182.945 41.826C191.168 44.8706 198.773 49.0851 205.833 54.3503C215.497 61.4932 224.507 69.4604 232.435 78.563C235.962 82.692 239.418 86.9405 242.648 91.2968C246.967 96.9502 250.213 103.179 252.841 109.766C255.096 115.484 257.197 121.191 258.654 127.161C260.521 134.752 261.29 142.417 260.653 150.134C259.774 161.106 258.035 171.889 254.817 182.438C253.457 186.889 251.607 191.21 249.459 195.353C247.014 200.128 244.474 204.928 241.671 209.489C235.246 219.986 226.239 227.89 215.641 234.116C203.02 241.563 189.221 245.15 174.675 245.781C171.015 245.945 167.403 246.3 163.743 246.869C152.79 248.672 141.798 249.724 130.686 249.894C113.993 250.054 97.8289 247.291 82.1822 241.355C74.484 238.381 67.1537 234.655 60.6784 229.495C50.117 221.007 44.3194 210.099 43.9046 196.411C43.7715 190.664 44.4732 185.011 45.5206 179.32C46.0857 176.338 46.6749 173.451 47.2997 170.504C49.0558 161.998 50.287 153.422 50.8384 144.764C51.2059 138.992 51.7285 133.231 52.1558 127.495C53.5696 110.607 58.79 94.9383 66.0118 83.3784Z" fill="black"/>
</mask>
<g mask="url(#mask0_119_294)">
<path d="M44.6064 342C45.5848 342.26 46.6229 342.556 47.6013 342.816C53.5439 344.661 59.5298 344.671 65.5608 343.654C73.8683 342.215 81.8272 339.597 89.6897 336.596C104.044 330.993 117.871 324.103 131.363 316.69C159.978 300.893 187.361 283.227 213.318 263.334C225.22 254.243 236.118 243.986 245.856 232.551C254.226 222.729 261.558 212.206 267.552 200.804C274.84 187.098 280.123 172.681 282.268 157.282C283.827 146.392 283.729 135.565 281.354 124.756C281.113 123.803 280.873 122.849 280.572 121.86C280.548 121.765 280.429 121.694 280.19 121.551C279.55 123.031 278.921 124.356 278.316 125.777C275.588 131.841 272.144 137.477 268.222 142.829C263.361 149.482 257.736 155.517 251.62 161.017C251.085 161.507 250.657 162.224 250.445 162.987C246.787 174.002 241.72 184.257 235.329 193.883C222.224 213.673 205.235 229.525 185.198 241.939C156.075 259.943 124.418 270.12 90.141 271.932C77.5271 272.582 64.9101 272.017 52.479 269.376C48.6733 268.562 44.9619 267.319 41.2746 266.172C40.1171 265.805 39.0424 265.164 38.0274 264.558C37.6095 264.309 37.2387 263.844 36.892 263.476C36.9633 263.356 36.9989 263.297 37.0701 263.177C37.3802 263.2 37.8212 263.14 38.0601 263.282C48.004 267.92 58.6439 269.492 69.4726 270.205C88.0533 271.496 106.352 269.46 124.394 265.004C149.931 258.706 173.575 248.12 194.869 232.651C207.129 223.773 217.848 213.409 227.155 201.475C235.333 190.89 241.983 179.475 246.722 166.919C246.923 166.311 247.089 165.762 247.468 164.855C246.909 165.25 246.552 165.441 246.254 165.669C234.757 174.759 222.195 181.836 208.495 187.021C207.53 187.416 207.019 188.002 206.52 188.838C204.181 193.029 202.081 197.362 199.36 201.244C185.244 221.644 166.497 235.557 142.043 241.126C129.804 243.862 117.605 243.546 105.671 239.664C92.7354 235.426 82.3551 227.856 75.3508 215.985C74.2972 214.223 73.4102 212.317 72.4279 210.435C70.1976 210.238 67.9077 210.005 65.558 209.736C64.8184 209.619 64.5575 210.192 64.3081 210.61C63.0371 212.604 61.7304 214.658 60.5191 216.688C55.722 224.999 50.7101 233.263 46.1518 241.716C40.4891 252.02 35.3637 262.645 31.444 273.827C29.0754 280.51 27.5061 287.346 26.8199 294.467C26.7737 295.087 26.6678 295.671 26.3471 296.209C26.3461 295.803 26.2855 295.362 26.3442 294.992C26.884 286.489 28.772 278.305 31.674 270.321C34.8956 261.394 38.8694 252.835 43.1417 244.454C48.8497 233.124 55.2741 222.222 61.9132 211.367C62.1983 210.889 62.4833 210.412 62.7683 209.934C62.8039 209.874 62.8155 209.719 62.8029 209.469C62.1587 209.327 61.4547 209.15 60.7152 209.033C52.7224 207.502 45.1562 204.849 38.2534 200.407C21.4624 189.74 12.8874 174.259 12.1834 154.408C11.8603 144.094 14.2094 134.323 18.551 125.012C25.5732 109.851 36.6103 98.1389 50.3601 88.936C54.3958 86.2434 58.7426 83.9792 63.0652 81.6197C64.0773 81.0091 64.5886 80.4236 64.8601 79.2902C67.007 69.722 71.2668 61.0906 77.1502 53.2661C89.9983 36.0764 107.034 24.6239 127.06 17.3852C139.617 12.8952 152.537 10.646 165.894 11.3291C174.623 11.761 183.094 13.5768 191.044 17.3493C200.379 21.7862 208.003 28.2782 213.45 37.196C214.144 38.339 214.896 38.7069 216.208 38.6798C227.248 38.2238 237.924 39.7361 248.224 43.7772C261.401 48.9679 272.104 57.2172 278.991 69.828C284.92 80.6525 286.486 92.2745 284.894 104.441C284.343 108.484 283.459 112.409 282.204 116.276C281.956 117.099 281.779 117.803 282.055 118.697C285.961 131.553 286.422 144.621 284.535 157.825C282.94 168.775 279.757 179.264 275.442 189.481C270.439 201.394 263.943 212.415 256.337 222.855C244.049 239.65 229.357 253.959 212.777 266.412C183.284 288.566 152.282 308.364 119.388 325.089C107.527 331.128 95.4011 336.523 82.7122 340.691C77.1839 342.493 71.5948 343.854 65.8498 344.798C58.5187 345.687 51.4225 345.096 44.6064 342ZM63.9532 83.9308C63.8338 83.8595 63.6903 83.6929 63.5709 83.6217C63.023 83.8615 62.4751 84.1013 61.9868 84.3767C58.2362 86.5918 54.4373 88.6161 50.7945 91.0574C37.1641 100.332 26.2821 112.055 19.5941 127.334C15.2304 137.361 13.2048 147.811 14.3879 158.719C16.1933 175.503 24.0711 188.624 38.1878 197.939C45.6761 202.893 54.006 205.758 62.8096 207.287C63.7639 207.451 64.2521 207.176 64.7152 206.4C65.9266 204.37 67.162 202.435 68.4927 200.476C69.0156 199.736 69.0733 198.961 68.9163 198.138C67.8885 192.262 67.8863 186.431 68.6708 180.503C69.4197 174.635 70.9323 168.979 73.0891 163.465C73.4328 162.618 73.4193 161.962 72.7259 161.224C71.9131 160.416 71.2072 159.428 70.5254 158.535C63.4085 149.43 58.364 139.295 56.2853 127.853C53.6509 113.408 56.2887 99.7605 62.9586 86.8188C63.338 85.9116 63.5738 84.8379 63.9532 83.9308ZM74.9913 210.346C75.0039 210.596 75.0279 210.691 75.052 210.787C75.1002 210.977 75.208 211.204 75.3159 211.43C79.1509 219.386 84.723 225.787 92.0206 230.79C101.432 237.134 111.957 240.257 123.238 240.754C137.691 241.363 151.145 237.813 163.755 230.926C181.141 221.464 194.26 207.755 203.483 190.264C203.768 189.786 203.898 189.297 204.123 188.784C203.908 188.737 203.789 188.666 203.694 188.69C203.217 188.81 202.705 188.99 202.288 189.146C180.877 196.126 159.002 198.456 136.66 194.921C135.766 194.792 135.063 195.021 134.289 195.368C129.929 197.382 125.558 199.551 121.091 201.339C106.594 207.181 91.566 210.52 75.8975 210.32C75.5518 210.356 75.3014 210.369 74.9913 210.346ZM67.0894 79.0821C67.2088 79.1533 67.3041 79.1292 67.4235 79.2005C67.7326 78.8182 68.1014 78.4715 68.3508 78.0535C70.6204 74.7928 73.1529 71.7699 76.0079 69.0205C93.7681 51.6042 115.21 42.9431 139.975 42.418C151.433 42.2114 162.421 44.5576 172.356 50.567C173.133 51.0302 173.68 50.7904 174.335 50.3715C185.421 43.8699 197.455 40.1204 210.246 38.7658C210.747 38.7408 211.223 38.6204 211.855 38.5115C211.496 37.8923 211.22 37.4041 210.909 36.9757C204.841 27.6062 196.371 21.1759 185.964 17.3139C176.894 13.9256 167.436 12.8158 157.766 13.2805C141.182 14.0719 125.68 18.7479 111.188 26.6171C96.6601 34.5459 84.428 45.1402 75.4951 59.1606C71.8602 64.8452 69.1565 71.0045 67.4196 77.5788C67.254 78.1277 67.124 78.617 67.0894 79.0821ZM91.6642 133.014C92.0687 132.608 92.2709 132.405 92.4731 132.201C97.2415 126.788 102.452 121.72 107.973 117.08C117.529 108.937 127.873 101.912 138.805 95.8044C139.65 95.3373 140.245 94.8827 140.505 93.9043C142.053 87.7836 144.447 82.0066 147.749 76.609C147.963 76.2508 148.117 75.8569 148.271 75.463C148.092 75.3561 148.008 75.2252 147.948 75.1895C147.459 75.0596 147.005 74.8699 146.481 74.7996C121.294 68.4337 96.6754 70.3416 72.5042 79.6413C68.8113 81.0811 68.871 81.1167 66.7805 84.4844C66.2105 85.4396 65.7358 86.3709 65.679 87.5515C64.6139 105.619 71.5403 119.792 86.5295 129.95C88.0703 131.032 89.8731 131.945 91.6642 133.014ZM147.551 137.457C146.848 137.686 146.24 137.89 145.573 138.058C136.255 140.919 126.779 142.146 117.059 141.609C115.819 141.517 114.351 141.127 113.315 141.642C112.279 142.157 111.591 143.447 110.83 144.45C104.162 153.183 97.5177 162.011 90.9093 170.779C90.2198 171.663 89.6141 172.678 88.9131 173.717C89.2358 173.991 89.439 174.193 89.5824 174.359C91.5412 175.69 93.524 177.116 95.554 178.328C107.185 185.43 119.693 189.978 133.03 192.593C134.199 192.805 135.176 192.66 136.188 192.049C153.193 182.683 168.2 170.83 181.39 156.597C181.627 156.334 181.841 155.976 182.186 155.534C168.029 154.292 156.235 148.955 147.551 137.457ZM138.576 193.069C138.6 193.164 138.624 193.259 138.648 193.355C139.328 193.436 139.972 193.578 140.592 193.624C151.434 194.993 162.345 195.026 173.169 193.712C183.611 192.494 193.764 190.133 203.653 186.722C204.868 186.314 205.606 185.621 206.068 184.439C206.495 183.317 206.957 182.135 207.383 181.014C210.878 171.764 212.775 162.208 212.823 152.359C212.833 151.799 212.784 151.203 212.806 150.487C212.294 150.667 211.948 150.704 211.686 150.871C203.478 153.908 195.028 155.586 186.204 155.583C185.334 155.55 184.774 155.945 184.263 156.53C171.193 170.835 156.354 182.95 139.492 192.482C139.135 192.674 138.838 192.901 138.576 193.069ZM171.264 52.2629C170.607 51.871 170.249 51.6572 169.89 51.4434C163.574 47.9173 156.796 45.9783 149.664 45.0416C138.297 43.6025 127.139 44.7982 116.176 47.9727C100.114 52.6381 86.1948 60.7682 74.945 73.2441C73.8271 74.4392 72.8285 75.7056 71.8656 76.9122C97.539 67.5374 123.47 66.0079 149.72 73.1701C155.483 64.869 162.573 58.0074 171.264 52.2629ZM280.41 113.991C280.635 113.478 280.718 113.203 280.801 112.929C281.414 110.137 282.087 107.381 282.51 104.637C284.21 92.6974 282.632 81.2304 276.751 70.5965C270.296 58.8909 260.464 51.0807 248.206 46.1143C238.132 41.9654 227.552 40.429 216.773 40.7175C216.368 40.7184 215.986 40.8148 215.45 40.8995C216.301 42.8649 217.164 44.6752 217.992 46.5453C220.96 46.4546 223.503 47.4859 225.855 48.9706C227.312 49.921 228.769 50.8714 230.06 51.9653C238.83 59.3846 245.422 68.4188 249.193 79.332C249.505 80.166 249.899 80.7254 250.747 81.0692C255.176 83.1451 259.237 85.9732 262.964 89.0882C270.468 95.509 275.901 103.366 279.715 112.442C279.871 112.859 280.086 113.312 280.41 113.991ZM190.192 98.6965C186.745 108.137 181.159 115.734 173.973 122.214C166.787 128.694 158.487 133.377 149.54 136.701C149.553 136.952 149.541 137.107 149.601 137.142C149.709 137.369 149.852 137.535 149.996 137.702C152.807 141.403 156.189 144.555 160.118 147.061C166.901 151.433 174.478 153.525 182.48 154.09C183.411 154.159 184.054 153.895 184.577 153.155C187.608 149.296 190.914 145.52 193.826 141.59C198.354 135.629 202.405 129.383 205.859 122.781C206.334 121.849 206.32 121.194 205.889 120.289C203.887 116.18 201.589 112.298 198.873 108.572C196.289 105.168 193.539 101.908 190.192 98.6965ZM249.198 116.094C249.043 116.082 248.948 116.106 248.828 116.035C242.249 131.945 230.482 142.574 215.058 149.563C215.362 161.809 212.934 173.476 208.18 184.97C209.014 184.658 209.491 184.538 209.907 184.382C212.385 183.35 214.863 182.319 217.221 181.216C228.107 176.134 238.156 169.742 247.426 162.077C248.259 161.359 248.817 160.559 249.113 159.521C250.389 154.939 251.427 150.214 252.06 145.491C253.101 137.368 252.927 129.249 250.868 121.3C250.315 119.513 249.691 117.845 249.198 116.094ZM220.28 90.3364C220.114 90.8853 220.02 91.3148 219.925 91.7443C217.589 101.766 214.011 111.29 209.335 120.483C208.86 121.414 208.993 122.141 209.365 123.011C212.4 130.408 214.255 138.154 214.847 146.118C214.872 146.619 214.992 147.095 215.077 147.632C215.625 147.392 216.137 147.212 216.59 146.996C222.378 144.216 227.723 140.685 232.446 136.298C239.109 130.153 244.255 123.021 247.382 114.524C247.773 113.462 247.676 112.675 247.22 111.675C243.542 104.541 238.282 98.9734 231.38 94.936C227.941 92.965 224.348 91.3878 220.28 90.3364ZM250.693 83.466C250.67 83.7761 250.634 83.8358 250.599 83.8955C250.647 84.0862 250.659 84.3366 250.708 84.5272C252.756 93.4414 252.778 102.36 250.248 111.214C250.035 111.978 250.144 112.609 250.408 113.253C253.105 119.315 254.373 125.739 254.723 132.344C255.159 140.297 254.176 148.05 252.323 155.769C252.158 156.318 252.087 156.843 251.981 157.427C252.72 157.139 253.124 156.733 253.588 156.362C258.965 151.15 263.841 145.558 268.071 139.419C272.539 133.017 276.23 126.151 278.895 118.836C279.204 118.048 279.261 117.273 278.949 116.439C273.907 102.5 265.248 91.5032 252.197 84.2017C251.839 83.9879 251.326 83.7626 250.693 83.466ZM147.795 135.012C148.629 134.7 149.201 134.556 149.749 134.316C154.562 132.492 159.099 130.18 163.421 127.415C173.183 121.095 181.26 113.122 186.266 102.426C187.085 100.648 187.748 98.8575 188.542 96.9835C186.631 95.438 184.898 93.9994 183.142 92.4655C182.413 91.7876 181.602 91.7895 180.708 92.066C166.279 96.5724 153.395 103.782 141.541 113.064C140.911 113.578 140.745 114.127 140.842 114.914C141.45 119.729 142.69 124.436 144.668 128.855C145.639 130.892 146.741 132.845 147.795 135.012ZM175.187 52.3368C183.5 58.3502 189.075 65.968 191.555 75.7873C201.078 73.9399 210.532 73.0226 220.227 73.4642C220.437 61.8497 218.503 50.9798 213.148 40.8216C199.57 41.8681 187.046 45.4876 175.187 52.3368ZM131.567 194.23C123.657 192.425 116.068 190.083 108.691 186.976C101.315 183.87 94.413 179.833 87.8318 175.258C87.0711 176.261 86.477 177.121 85.8829 177.981C83.1261 181.923 80.4646 185.841 77.7078 189.782C75.783 192.601 73.8822 195.515 71.9815 198.429C71.6964 198.907 71.3758 199.444 71.4962 199.921C72.0279 202.829 72.8812 205.605 74.0446 208.404C94.4953 208.867 113.429 203.325 131.567 194.23ZM62.9829 91.9341C57.6332 103.478 55.8619 115.537 58.2652 128.063C60.5124 140.172 66.1184 150.723 74.2618 160.279C78.4002 150.765 83.9128 142.477 90.2969 134.627C73.247 125.344 63.9363 111.368 62.9829 91.9341ZM139.418 98.0327C138.704 98.416 138.216 98.6914 137.727 98.9668C135.703 100.188 133.619 101.374 131.56 102.654C118.154 111.01 105.895 120.698 95.2282 132.469C94.7881 132.935 94.4675 133.472 93.9918 133.998C99.7216 136.608 105.532 138.132 111.484 139.011C112.379 139.14 112.784 138.734 113.295 138.149C120.702 129.128 128.837 120.785 137.846 113.287C138.476 112.773 138.702 112.26 138.7 111.449C138.657 108.671 138.71 105.868 138.822 103.102C138.938 101.551 139.184 99.9172 139.418 98.0327ZM173.163 53.558C164.817 58.8605 157.559 65.4601 151.761 73.821C152.429 74.0578 152.882 74.2475 153.276 74.4016C158.754 76.2126 164.148 78.2982 169.247 81.0164C170.058 81.4199 170.654 81.3707 171.453 81.1184C177.125 79.483 182.82 77.9429 188.457 76.3672C188.743 76.295 189.064 76.163 189.35 76.0908C187.779 67.4616 180.841 58.0585 173.163 53.558ZM87.1691 172.434C95.0612 161.921 102.822 151.493 110.714 140.981C104.392 140.042 98.3187 138.28 92.6129 135.766C86.9037 141.67 78.0306 155.726 76.0434 162.313C79.4506 165.966 83.0956 169.355 87.1691 172.434ZM248.634 109.441C248.812 109.143 248.978 108.999 248.99 108.844C249.143 108.045 249.391 107.222 249.544 106.422C250.992 98.7041 250.592 91.0976 248.666 83.4709C248.425 82.5176 248.006 81.8628 247.063 81.5432C246.729 81.4247 246.431 81.2466 246.156 81.1638C238.864 78.1886 231.228 76.4662 223.416 75.8531C223.047 75.7944 222.665 75.8907 222.355 75.8676C221.864 79.9468 221.409 83.9663 220.858 88.0098C232.946 91.4981 242.347 98.4031 248.634 109.441ZM218.192 89.9003C212.261 87.8995 197.153 87.7096 192.4 89.5694C191.988 91.7524 191.54 93.9952 191.057 96.2977C197.774 102.816 203.36 110.279 207.722 119.116C212.481 109.648 215.999 100.089 218.192 89.9003ZM218.376 47.6652C221.389 56.1835 222.495 64.778 222.23 73.3639C226.572 74.0927 230.806 74.5951 234.886 75.4915C239.026 76.4234 242.976 77.8089 247.189 79.0269C246.984 78.4192 246.864 77.9426 246.624 77.3947C243.349 69.0439 238.335 61.8421 232.036 55.5735C229.622 53.2422 227.136 51.0304 224.235 49.38C222.527 48.4422 220.713 47.6834 218.376 47.6652ZM179.702 90.089C179.2 89.7087 179.033 89.4468 178.854 89.3399C176.202 87.6769 173.575 86.1094 170.924 84.4464C170.208 84.0189 169.66 84.2587 169.052 84.4629C160.081 87.6922 151.339 91.6244 142.896 96.1402C142.05 96.6073 141.729 97.1447 141.505 98.0634C140.811 101.94 140.487 105.876 140.568 109.811C140.604 110.156 140.641 110.502 140.761 110.979C152.579 101.757 165.333 94.6311 179.702 90.089ZM115.122 139.158C121.898 140.691 141.793 138.151 146.055 135.35C145.337 134.112 144.618 132.874 144.031 131.552C143.408 130.289 142.844 129.062 142.316 127.776C141.824 126.43 141.332 125.083 140.876 123.678C140.443 122.367 140.142 120.973 139.805 119.638C139.503 118.244 139.261 116.885 138.912 115.3C130.141 122.535 122.41 130.471 115.122 139.158ZM212.85 148.651C212.483 140.174 210.735 132.248 207.604 124.47C204.254 129.677 201.19 134.811 197.768 139.732C194.346 144.653 190.506 149.325 186.678 154.247C195.859 154.058 204.452 152.141 212.85 148.651ZM192.133 78.0753C192.284 81.0798 192.505 83.9648 192.715 87.0049C201.393 85.6246 210.002 85.5799 218.651 87.5025C219.357 83.4705 219.92 79.6773 219.994 75.7541C213.434 75.0784 198.091 76.3677 192.133 78.0753ZM75.2018 164.402C71.4725 170.516 68.733 191.39 71.0578 196.178C76.036 188.785 81.074 181.427 85.9809 174.154C82.36 170.859 78.8584 167.637 75.2018 164.402ZM142.711 93.6009C150.63 89.4202 158.694 85.8116 167.092 82.7268C164.333 80.8375 153.46 76.5355 150.407 76.0898C147.696 79.4112 143.166 89.5814 142.711 93.6009ZM189.976 78.5694C186.877 78.7439 174.77 82.2073 173.473 83.2956C174.488 83.9012 175.503 84.5069 176.518 85.1126C177.533 85.7182 178.477 86.4433 179.432 87.0133C180.471 87.7143 181.487 88.7254 182.656 88.9372C183.73 89.173 184.992 88.5499 186.232 88.2369C187.626 87.9354 188.996 87.5386 190.427 87.1774C190.61 84.2914 190.448 81.4419 189.976 78.5694ZM69.5578 202.084C68.3465 204.114 67.3133 205.845 66.1733 207.756C67.9384 207.918 69.6082 208.105 71.5284 208.279C70.8436 206.17 70.2667 204.288 69.5578 202.084ZM189.276 94.6684C189.594 92.9149 189.888 91.4714 190.17 89.7775C188.359 90.235 186.666 90.3583 185.082 91.1134C186.492 92.2785 187.723 93.3367 189.276 94.6684Z" fill="#F2C94C"/>
</g>
</svg>
