<svg width="110" height="73" viewBox="0 0 110 73" fill="none" xmlns="http://www.w3.org/2000/svg">
<path d="M92.4183 72.0186C94.9898 72.1124 97.7836 71.6746 100.45 70.6113C105.403 68.6099 108.07 64.8259 109.054 59.7598C109.245 58.6965 109.149 57.602 108.927 56.5387C108.578 54.9751 108.07 53.5053 107.244 52.1293C105.975 50.0028 104.514 48.0013 102.673 46.3439C101.085 44.9054 99.4345 43.5294 97.7202 42.2472C94.9263 40.1832 92.0373 38.2131 89.2117 36.1804C87.9418 35.2735 86.6402 34.3978 85.1798 33.7724C85.021 33.7098 84.8623 33.616 84.7036 33.5222C77.1476 29.019 69.5916 24.5157 62.0356 19.9812C57.0195 16.9791 52.0351 13.9144 47.0824 10.8809C42.225 7.91007 37.2406 5.18936 31.907 3.09411C28.8909 1.90576 25.7796 0.936313 22.5731 0.373409C19.4618 -0.158223 16.414 -0.00186028 13.3663 0.811223C7.81039 2.28103 4.03241 5.68972 2.0323 11.006C0.0639343 16.2598 0.857628 21.2321 3.74667 25.9543C4.8261 27.7055 6.25475 29.2379 7.77865 30.6139C9.74701 32.3964 11.9059 33.96 14.0647 35.4611C20.4143 39.8392 27.0178 43.8108 33.8436 47.4384C41.2726 51.3788 48.6381 55.4129 56.0353 59.3845C60.0673 61.5423 64.0675 63.7626 68.3217 65.5452C71.306 66.7961 74.322 67.9532 77.3381 69.204C82.0367 71.1742 87.0211 71.9248 92.4183 72.0186Z" fill="#4CA96D"/>
<mask id="mask0_33_400" style="mask-type:alpha" maskUnits="userSpaceOnUse" x="0" y="0" width="110" height="73">
<path d="M92.4183 72.0186C94.9898 72.1124 97.7836 71.6746 100.45 70.6113C105.403 68.6099 108.07 64.8259 109.054 59.7598C109.245 58.6965 109.149 57.602 108.927 56.5387C108.578 54.9751 108.07 53.5053 107.244 52.1293C105.975 50.0028 104.514 48.0013 102.673 46.3439C101.085 44.9054 99.4345 43.5294 97.7202 42.2472C94.9263 40.1832 92.0373 38.2131 89.2117 36.1804C87.9418 35.2734 86.6402 34.3978 85.1798 33.7724C85.021 33.7098 84.8623 33.616 84.7036 33.5222C77.1476 29.019 69.5916 24.5157 62.0356 19.9812C57.0195 16.9791 52.0351 13.9144 47.0824 10.8809C42.225 7.91007 37.2406 5.18936 31.907 3.09411C28.8909 1.90576 25.7796 0.936313 22.5731 0.373409C19.4618 -0.158222 16.414 -0.00186025 13.3663 0.811223C7.81039 2.28103 4.03239 5.68972 2.03229 11.006C0.0639191 16.2598 0.857613 21.2321 3.74667 25.9543C4.82609 27.7055 6.25475 29.2379 7.77864 30.6139C9.747 32.3964 11.9059 33.96 14.0647 35.4611C20.4143 39.8392 27.0178 43.8108 33.8436 47.4384C41.2726 51.3788 48.6381 55.4129 56.0353 59.3845C60.0673 61.5423 64.0675 63.7626 68.3217 65.5452C71.306 66.7961 74.322 67.9531 77.3381 69.204C82.0367 71.1742 87.0211 71.9248 92.4183 72.0186Z" fill="black"/>
</mask>
<g mask="url(#mask0_33_400)">
<path d="M120.949 60.8332C120.817 53.704 118.862 47.7576 114.788 42.5339C112.039 39.0186 108.958 35.799 105.48 32.9736C98.2926 27.0601 91.0054 21.3107 83.4864 15.8242C81.0683 14.0502 78.5841 12.4075 76.1329 10.732C75.2717 10.1735 74.3774 9.68069 73.4499 9.22074C72.9199 8.95791 72.3568 8.8265 71.7937 8.76079C70.8 8.62938 69.9057 8.92506 69.177 9.64783C68.8126 10.0092 68.5145 10.4035 68.2495 10.8305C67.6201 11.7833 67.057 12.736 66.4608 13.7216C62.5191 20.0952 58.5774 26.4687 54.6688 32.8751C52.4826 36.4561 50.3627 40.1028 48.1103 43.6838C45.4936 47.8562 42.7112 51.93 39.6969 55.8395C39.5975 55.9709 39.4982 56.1023 39.3988 56.2337C38.6701 57.285 38.6701 58.1721 39.4319 59.2234C39.6969 59.6176 40.0281 59.979 40.3263 60.3075C43.8042 64.2499 47.746 67.6338 52.2839 70.3606C58.0805 73.8431 63.9103 77.2598 70.0382 80.1838C76.2654 83.1734 82.7577 85.3746 89.5811 86.623C93.1254 87.2801 96.6696 87.4772 100.247 86.7216C100.909 86.5901 101.539 86.4587 102.168 86.1959C112.271 82.3521 118.73 75.4529 120.585 64.6442C120.817 63.2315 120.85 61.7531 120.949 60.8332Z" fill="black"/>
<mask id="mask1_33_400" style="mask-type:alpha" maskUnits="userSpaceOnUse" x="38" y="8" width="83" height="80">
<path d="M120.953 60.8332C120.821 53.704 118.866 47.7576 114.792 42.5339C112.043 39.0186 108.962 35.799 105.484 32.9736C98.2965 27.0601 91.0093 21.3107 83.4903 15.8242C81.0723 14.0502 78.588 12.4075 76.1368 10.732C75.2756 10.1735 74.3813 9.68069 73.4538 9.22074C72.9238 8.95791 72.3607 8.8265 71.7976 8.76079C70.8039 8.62938 69.9096 8.92506 69.1809 9.64783C68.8165 10.0092 68.5184 10.4035 68.2534 10.8305C67.6241 11.7833 67.061 12.736 66.4647 13.7216C62.523 20.0952 58.5813 26.4687 54.6727 32.8751C52.4865 36.4561 50.3666 40.1028 48.1142 43.6838C45.4975 47.8562 42.7151 51.93 39.7008 55.8395C39.6014 55.9709 39.5021 56.1023 39.4027 56.2337C38.674 57.285 38.674 58.1721 39.4358 59.2234C39.7008 59.6176 40.0321 59.979 40.3302 60.3075C43.8082 64.2499 47.7499 67.6338 52.2878 70.3606C58.0844 73.8431 63.9142 77.2598 70.0421 80.1838C76.2693 83.1734 82.7616 85.3746 89.585 86.623C93.1293 87.2801 96.6735 87.4772 100.251 86.7216C100.913 86.5901 101.543 86.4587 102.172 86.1959C112.275 82.3521 118.734 75.4529 120.589 64.6442C120.821 63.2315 120.854 61.7531 120.953 60.8332Z" fill="#EA552B"/>
</mask>
<g mask="url(#mask1_33_400)">
<path d="M35.8576 38.4251C35.318 38.6446 34.7688 38.8477 34.2292 39.0672C30.6026 40.5181 26.8088 41.4931 22.9442 42.1568C22.6192 42.2101 22.2915 42.221 21.971 42.2059C21.8586 42.204 21.6786 42.0868 21.6638 41.9854C21.6227 41.877 21.7344 41.7254 21.8146 41.482C22.0249 41.9555 22.3139 41.8787 22.5863 41.8114C25.9054 41.1288 29.2027 40.3709 32.4074 39.2262C33.6587 38.777 34.881 38.2784 36.1227 37.8127C36.3925 37.7029 36.5903 37.5463 36.7662 37.3142C38.7845 34.5604 41.0475 31.9966 43.6659 29.7358C45.2407 28.3553 46.8926 27.1065 48.7778 26.1423C49.1047 25.978 49.4509 25.8467 49.8094 25.7743C50.4235 25.6442 50.8174 26.013 50.7078 26.6248C50.6282 27.0217 50.4459 27.4331 50.2443 27.8117C49.7249 28.7887 49.0063 29.6156 48.235 30.4286C46.9519 31.7748 45.5197 32.9423 43.9962 34.03C42.7207 34.9325 41.4136 35.7431 40.0417 36.4808C39.2638 36.902 38.4404 37.2832 37.6336 37.655C37.3568 37.7907 37.1256 37.9664 36.9426 38.2245C35.885 39.7279 34.8994 41.2781 34.1007 42.9197C33.6622 43.8067 33.2861 44.7241 33.0513 45.6928C32.8845 46.3591 32.7703 47.0394 32.8117 47.719C32.8833 48.7548 33.3224 49.5813 34.1551 50.2055C34.7167 50.6326 35.3303 50.9202 35.9915 51.1368C37.1197 51.5047 38.2613 51.6673 39.4408 51.7424C42.3022 51.9139 45.1063 51.5688 47.8633 50.8769C48.6637 50.6846 49.4255 50.4263 50.2163 50.2175C50.3858 50.1648 50.5098 50.0722 50.5952 49.9137C52.2818 46.8215 54.5827 44.1703 57.0302 41.6553C59.4134 39.2209 61.9817 36.9886 64.6439 34.8787C66.5816 33.3572 68.5649 31.8757 70.5482 30.3942C71.8044 29.4588 73.1256 28.5962 74.5072 27.875C74.9177 27.6631 75.357 27.5007 75.7893 27.3643C75.9923 27.2926 76.2172 27.2963 76.4253 27.3095C76.868 27.343 77.204 27.613 77.2562 28.0447C77.3032 28.3914 77.3098 28.7832 77.218 29.1211C77.046 29.7025 76.831 30.2864 76.5607 30.8139C75.7383 32.4909 74.6114 33.9899 73.4291 35.4325C71.3119 37.979 68.892 40.2366 66.2774 42.2756C63.5388 44.4071 60.6556 46.2914 57.5918 47.9051C55.5826 48.9619 53.4867 49.8703 51.3207 50.621C51.1344 50.6832 50.9578 50.7618 50.8583 50.9723C50.3203 52.0698 49.871 53.2047 49.7114 54.4162C49.6486 54.8036 49.6384 55.2049 49.645 55.5966C49.6898 57.0433 50.3383 58.1898 51.5547 59.0129C52.3656 59.5617 53.2831 59.8739 54.2455 60.0727C55.3827 60.3037 56.5358 60.3718 57.7005 60.3454C60.3839 60.2888 63.0054 59.784 65.5807 59.0859C69.907 57.9174 74.0372 56.2235 77.9765 54.0891C78.1602 53.9844 78.3483 53.8113 78.4671 53.6337C81.6801 48.5073 85.6854 44.0501 90.1181 39.9427C91.1566 38.9776 92.267 38.0593 93.4449 37.2563C94.084 36.8263 94.752 36.4457 95.4997 36.2395C95.7123 36.1843 95.9609 36.1525 96.1858 36.1562C96.9034 36.1649 97.3622 36.6066 97.3271 37.3077C97.2977 37.676 97.2348 38.0634 97.0833 38.4134C96.8253 38.9999 96.5145 39.5724 96.1749 40.0955C95.0441 41.8164 93.6589 43.3306 92.2088 44.772C89.5513 47.3847 86.6342 49.7058 83.4934 51.7589C82.1055 52.6595 80.6622 53.5037 79.255 54.3714C79.088 54.4665 78.9235 54.6041 78.8215 54.7722C77.8577 56.3979 77.0116 58.1104 76.5438 59.9369C76.2076 61.2271 76.0699 62.514 76.3222 63.8205C76.4985 64.7308 76.8515 65.5624 77.4408 66.3033C78.1503 67.1734 79.0544 67.6911 80.1344 67.9766C81.0826 68.2274 82.0373 68.2987 83.0202 68.2661C85.029 68.1982 86.9741 67.7932 88.8755 67.2372C92.2196 66.2549 95.385 64.8909 98.4656 63.2677C98.9929 62.9892 99.5106 62.6943 100.055 62.4063C100.255 62.2921 100.367 62.1406 100.414 61.9161C101.716 56.9114 104.41 52.7621 108.396 49.4143C110.147 47.9551 112.079 46.7665 114.281 46.0393C114.857 45.8432 115.481 45.7295 116.081 45.6514C116.432 45.605 116.832 45.641 117.174 45.7315C117.849 45.8961 118.254 46.4349 118.209 47.1195C118.175 47.5563 118.081 48.0052 117.88 48.3837C117.524 49.0697 117.125 49.7583 116.662 50.374C115.473 51.996 114.02 53.3949 112.529 54.7279C109.194 57.7047 105.565 60.2555 101.703 62.5218C101.386 62.7026 101.227 62.9251 101.154 63.296C100.73 65.6911 101.044 68.0169 101.848 70.3052C102.485 72.1174 103.359 73.8389 104.283 75.5319C104.944 76.7374 105.638 77.9239 106.365 79.0914C106.739 79.6916 107.172 80.2798 107.612 80.8419C107.874 81.1759 108.187 81.4814 108.701 81.5617C108.417 81.7235 108.2 81.6938 108.01 81.5601C107.686 81.3491 107.362 81.1381 107.096 80.8725C106.279 80.0854 105.634 79.1347 105.031 78.1815C103.704 76.1032 102.527 73.9393 101.46 71.7349C100.253 69.2147 99.6956 66.5878 100.061 63.787C100.072 63.6925 100.067 63.6076 100.067 63.4542C99.8732 63.5424 99.7229 63.628 99.5796 63.6876C97.1125 65.0273 94.5754 66.2091 91.9463 67.1577C89.7231 67.9628 87.4562 68.6171 85.1256 68.9342C84.1145 69.0708 83.1008 69.165 82.0767 69.0892C81.3996 69.0356 80.7296 68.9559 80.071 68.7818C77.6932 68.1809 76.2177 66.6485 75.5926 64.3241C75.2594 63.1077 75.2802 61.8873 75.4995 60.6638C75.8099 58.9489 76.4556 57.3505 77.2524 55.8199C77.314 55.6969 77.3756 55.5739 77.4373 55.4509C77.4443 55.4249 77.425 55.392 77.4295 55.3235C76.8758 55.595 76.3222 55.8665 75.7852 56.1285C71.217 58.2917 66.4816 59.9788 61.4768 60.7867C59.8946 61.051 58.295 61.1713 56.6851 61.1217C55.5082 61.0891 54.3428 60.9621 53.2216 60.5681C52.6132 60.3654 52.0189 60.1108 51.4624 59.7686C49.7861 58.7682 48.9684 57.2565 48.9549 55.3306C48.9494 54.1033 49.2574 52.9171 49.7067 51.7822C49.7966 51.5552 49.8864 51.3283 49.9904 51.0493C49.7778 51.1045 49.6153 51.1312 49.4624 51.1744C46.4908 52.0324 43.4556 52.5532 40.3411 52.4819C38.9824 52.443 37.6352 52.3097 36.3181 51.9614C35.4919 51.729 34.7131 51.4256 34.0005 50.9307C32.7482 50.0842 32.1234 48.9021 32.119 47.4105C32.1104 46.5585 32.2765 45.7387 32.5217 44.9399C32.9035 43.6896 33.4363 42.5072 34.0771 41.395C34.5683 40.522 35.1218 39.6793 35.6393 38.8132C35.7176 38.6807 35.8056 38.5646 35.8839 38.4321C35.9032 38.4651 35.8936 38.4486 35.8576 38.4251ZM51.6108 49.7087C51.7566 49.6915 51.8164 49.6794 51.8761 49.6674C53.4736 49.0868 55.0133 48.4074 56.5311 47.6525C59.3733 46.231 62.0349 44.5388 64.5905 42.6653C67.2938 40.6638 69.7857 38.4531 72.0012 35.9604C73.4243 34.3586 74.7201 32.6535 75.7281 30.7609C75.9843 30.2854 76.1948 29.7699 76.379 29.2475C76.4689 29.0205 76.5035 28.7371 76.5143 28.4893C76.5297 28.1729 76.4288 28.0766 76.1134 28.1464C75.8147 28.2068 75.5185 28.3096 75.2417 28.4453C73.5781 29.2173 72.0687 30.253 70.598 31.3546C68.4977 32.9027 66.4265 34.5003 64.3912 36.1213C61.7624 38.2122 59.2635 40.4489 56.9496 42.8877C55.0571 44.8668 53.3084 46.9397 51.8599 49.2591C51.8053 49.3561 51.727 49.4886 51.6108 49.7087ZM101.631 61.4859C101.825 61.3978 101.925 61.3407 102.042 61.2741C105.675 59.0725 109.101 56.5934 112.235 53.7308C113.619 52.4809 114.938 51.1581 116.029 49.6357C116.395 49.1195 116.706 48.547 117 47.984C117.133 47.7544 117.184 47.4615 117.212 47.2041C117.247 46.9208 117.133 46.7655 116.87 46.6958C116.712 46.6541 116.52 46.6313 116.375 46.6485C115.937 46.6999 115.483 46.7609 115.067 46.8879C113.209 47.4412 111.529 48.3762 109.985 49.5419C106.068 52.4763 103.354 56.2859 101.81 60.8786C101.735 61.0536 101.702 61.226 101.631 61.4859ZM80.028 52.8763C80.0376 52.8928 80.0736 52.9162 80.0832 52.9327C80.1333 52.9042 80.1931 52.8921 80.2432 52.8636C84.3031 50.4407 88.0816 47.6508 91.475 44.3551C92.911 42.9657 94.2558 41.4965 95.3653 39.8536C95.7217 39.321 96.0158 38.7579 96.3002 38.1784C96.4234 37.9324 96.4651 37.6231 96.4997 37.3397C96.5202 37.1083 96.4096 36.9955 96.1681 37.0013C95.9098 37.0166 95.6542 37.0743 95.4011 37.1746C94.3958 37.5495 93.5545 38.2047 92.7131 38.8598C90.9662 40.2506 89.3324 41.7966 87.7802 43.406C85.0399 46.2197 82.4891 49.167 80.2771 52.4268C80.2251 52.5663 80.1397 52.7248 80.028 52.8763ZM50.1513 26.2826C49.7517 26.2466 49.4248 26.4109 49.1145 26.5657C48.0766 27.1131 47.0894 27.7854 46.1478 28.4976C43.0682 30.8454 40.4474 33.6349 38.0836 36.6735C38.0194 36.754 37.9745 36.8675 37.8724 37.0355C38.3259 36.8211 38.6624 36.6733 39.0061 36.4995C41.2683 35.3425 43.4148 33.9877 45.3641 32.3718C46.7462 31.2329 48.0634 30.021 49.1139 28.5436C49.4491 28.0889 49.7123 27.5874 49.9852 27.1024C50.1444 26.8798 50.2317 26.6104 50.1513 26.2826Z" fill="#F7D046"/>
</g>
</g>
</svg>
